{"glyphs":{"0":{"ha":694,"x_min":0,"x_max":579,"o":"m 579 231 q 510 68 579 137 q 347 0 442 0 l 231 0 q 68 68 137 0 q 0 231 0 137 l 0 579 q 68 742 0 674 q 231 810 137 810 l 347 810 q 510 742 442 810 q 579 579 579 674 l 579 231 m 446 641 q 347 694 411 694 l 231 694 q 150 660 184 694 q 116 579 116 626 l 116 311 l 446 641 m 463 231 l 463 497 l 135 169 q 231 116 170 116 l 347 116 q 429 150 395 116 q 463 231 463 184 z "},"1":{"ha":694,"x_min":0,"x_max":579,"o":"m 579 0 l 0 0 l 0 116 l 231 116 l 231 579 l 58 579 l 58 694 l 116 694 q 197 729 163 694 q 231 810 231 763 l 347 810 l 347 116 l 579 116 l 579 0 z "},"2":{"ha":694,"x_min":0,"x_max":579,"o":"m 579 0 l 0 0 l 0 80 l 455 536 q 463 579 463 553 q 429 660 463 626 q 347 694 395 694 l 231 694 q 150 660 184 694 q 116 579 116 626 l 0 579 q 68 742 0 674 q 231 810 137 810 l 347 810 q 510 742 442 810 q 579 579 579 675 q 553 472 579 521 l 196 116 l 579 116 l 579 0 z "},"3":{"ha":694,"x_min":0,"x_max":579,"o":"m 116 231 q 150 150 116 184 q 231 116 184 116 l 347 116 q 429 150 395 116 q 463 231 463 184 q 429 313 463 279 q 347 347 395 347 l 231 347 l 231 463 l 347 463 q 429 497 395 463 q 463 579 463 531 q 429 660 463 626 q 347 694 395 694 l 231 694 q 150 660 184 694 q 116 579 116 626 l 0 579 q 68 742 0 675 q 231 810 135 810 l 347 810 q 511 742 443 810 q 579 579 579 675 q 480 405 579 475 q 579 231 579 336 q 511 68 579 135 q 347 0 443 0 l 231 0 q 68 68 135 0 q 0 231 0 135 l 116 231 z "},"4":{"ha":694,"x_min":0,"x_max":579,"o":"m 579 0 l 231 0 l 231 116 l 347 116 l 347 231 l 0 231 l 0 427 l 383 810 l 463 810 l 463 347 l 579 347 l 579 231 l 463 231 l 463 116 l 579 116 l 579 0 m 347 347 l 347 615 l 116 383 l 116 347 l 347 347 z "},"5":{"ha":694,"x_min":0,"x_max":579,"o":"m 579 231 q 510 68 579 137 q 347 0 442 0 l 231 0 q 68 68 137 0 q 0 231 0 135 l 116 231 q 150 150 116 184 q 231 116 184 116 l 347 116 q 429 150 395 116 q 463 231 463 184 l 463 347 q 429 429 463 395 q 347 463 395 463 l 0 463 l 0 810 l 579 810 l 579 694 l 116 694 l 116 579 l 347 579 q 510 510 442 579 q 579 347 579 442 l 579 231 z "},"6":{"ha":694,"x_min":0,"x_max":579,"o":"m 579 231 q 510 68 579 137 q 347 0 442 0 l 231 0 q 68 68 137 0 q 0 231 0 137 l 0 579 q 68 742 0 674 q 231 810 137 810 l 463 810 l 463 694 l 231 694 q 150 660 184 694 q 116 579 116 626 l 347 579 q 510 510 442 579 q 579 347 579 442 l 579 231 m 463 231 l 463 347 q 429 429 463 395 q 347 463 395 463 l 116 463 l 116 231 q 150 150 116 184 q 231 116 184 116 l 347 116 q 429 150 395 116 q 463 231 463 184 z "},"7":{"ha":694,"x_min":0,"x_max":579,"o":"m 579 499 l 347 267 l 347 0 l 231 0 l 231 311 l 463 543 l 463 694 l 0 694 l 0 810 l 579 810 l 579 499 z "},"8":{"ha":694,"x_min":0,"x_max":579,"o":"m 347 810 q 511 742 443 810 q 579 579 579 675 q 480 405 579 475 q 579 231 579 336 q 511 68 579 135 q 347 0 443 0 l 231 0 q 68 68 135 0 q 0 231 0 135 q 98 405 0 336 q 0 579 0 475 q 68 742 0 675 q 231 810 135 810 l 347 810 m 231 694 q 149 660 183 694 q 116 579 116 626 q 150 497 116 531 q 231 463 184 463 l 347 463 q 429 497 395 463 q 463 579 463 531 q 429 660 463 626 q 347 694 395 694 l 231 694 m 347 116 q 429 150 396 116 q 463 231 463 184 q 429 313 463 279 q 347 347 395 347 l 231 347 q 150 313 184 347 q 116 231 116 279 q 150 150 116 184 q 231 116 184 116 l 347 116 z "},"9":{"ha":694,"x_min":0,"x_max":579,"o":"m 579 231 q 510 68 579 137 q 347 0 442 0 l 116 0 l 116 116 l 347 116 q 429 150 395 116 q 463 231 463 184 l 231 231 q 68 300 137 231 q 0 463 0 368 l 0 579 q 68 742 0 674 q 231 810 137 810 l 347 810 q 510 742 442 810 q 579 579 579 674 l 579 231 m 463 347 l 463 579 q 429 660 463 626 q 347 694 395 694 l 231 694 q 150 660 184 694 q 116 579 116 626 l 116 463 q 150 381 116 416 q 231 347 184 347 l 463 347 z "}," ":{"ha":694,"x_min":0,"x_max":0,"o":""},"!":{"ha":694,"x_min":231,"x_max":347,"o":"m 347 231 l 231 231 l 231 810 l 347 810 l 347 231 m 347 58 q 330 17 347 34 q 289 0 314 0 q 248 17 265 0 q 231 58 231 34 q 248 99 231 82 q 289 116 265 116 q 330 99 314 116 q 347 58 347 82 z "},"\"":{"ha":694,"x_min":116,"x_max":463,"o":"m 463 579 l 347 579 l 347 926 l 463 926 l 463 579 m 231 579 l 116 579 l 116 926 l 231 926 l 231 579 z "},"#":{"ha":694,"x_min":0,"x_max":579,"o":"m 579 347 l 463 347 l 463 231 l 347 231 l 347 347 l 231 347 l 231 231 l 116 231 l 116 347 l 0 347 l 0 463 l 116 463 l 116 579 l 0 579 l 0 694 l 116 694 l 116 810 l 231 810 l 231 694 l 347 694 l 347 810 l 463 810 l 463 694 l 579 694 l 579 579 l 463 579 l 463 463 l 579 463 l 579 347 m 347 463 l 347 579 l 231 579 l 231 463 l 347 463 z "},"$":{"ha":694,"x_min":0,"x_max":579,"o":"m 579 231 q 511 68 579 137 q 347 0 443 0 l 347 -115 l 231 -115 l 231 0 q 68 68 135 0 q 0 231 0 135 l 116 231 q 150 150 116 184 q 231 116 184 116 l 231 347 q 68 415 135 347 q 0 579 0 483 q 68 742 0 675 q 231 810 135 810 l 231 926 l 347 926 l 347 810 q 511 742 443 810 q 579 579 579 674 l 463 579 q 429 660 463 626 q 347 694 395 694 l 347 463 q 510 395 442 463 q 579 231 579 326 m 231 463 l 231 694 q 150 660 184 694 q 116 579 116 626 q 150 497 116 531 q 231 463 184 463 m 463 231 q 429 313 463 279 q 347 347 395 347 l 347 116 q 429 150 395 116 q 463 231 463 184 z "},"%":{"ha":694,"x_min":0,"x_max":579,"o":"m 579 231 q 528 68 579 135 q 405 0 477 0 q 282 68 333 0 q 231 231 231 135 q 234 267 231 244 l 116 149 l 116 0 l 0 0 l 0 198 l 152 350 q 41 429 81 365 q 0 579 0 491 q 51 742 0 675 q 174 810 102 810 l 579 810 l 579 612 l 428 462 q 536 383 494 448 q 579 231 579 317 m 463 661 l 463 694 l 323 694 q 347 579 347 639 q 346 544 347 554 l 463 661 m 231 579 q 215 660 231 626 q 174 694 198 694 q 133 660 149 694 q 116 579 116 626 q 133 497 116 531 q 174 463 149 463 q 215 497 198 463 q 231 579 231 531 m 463 231 q 446 313 463 279 q 405 347 429 347 q 364 313 381 347 q 347 231 347 279 q 364 150 347 184 q 405 116 381 116 q 446 150 429 116 q 463 231 463 184 z "},"&":{"ha":694,"x_min":0,"x_max":604,"o":"m 604 293 l 486 174 l 597 61 l 517 -17 l 405 94 l 338 25 q 231 0 289 0 q 68 68 137 0 q 0 231 0 135 q 25 338 0 289 l 93 404 l 25 472 q 0 579 0 521 q 68 742 0 675 q 231 810 135 810 l 303 810 q 416 763 369 810 q 463 652 463 716 q 454 605 463 618 l 255 405 l 405 253 l 524 373 l 604 293 m 346 656 q 347 666 347 661 q 318 694 347 694 l 231 694 q 150 660 184 694 q 116 579 116 626 q 124 536 116 553 l 175 485 l 346 656 m 325 174 l 174 324 l 124 274 q 116 231 116 257 q 150 150 116 184 q 231 116 184 116 q 274 124 257 116 l 325 174 z "},"'":{"ha":694,"x_min":231,"x_max":347,"o":"m 347 579 l 231 579 l 231 926 l 347 926 l 347 579 z "},"(":{"ha":694,"x_min":116,"x_max":485,"o":"m 485 -57 l 405 -137 l 116 152 l 116 659 l 405 948 l 485 868 l 231 615 l 231 196 l 485 -57 z "},")":{"ha":694,"x_min":94,"x_max":463,"o":"m 463 152 l 174 -137 l 94 -57 l 347 196 l 347 615 l 94 868 l 174 948 l 463 659 l 463 152 z "},"*":{"ha":694,"x_min":8,"x_max":571,"o":"m 571 432 l 514 330 l 347 421 l 347 231 l 231 231 l 231 421 l 67 326 l 9 426 l 174 521 l 8 610 l 65 712 l 231 619 l 231 810 l 347 810 l 347 622 l 510 715 l 568 616 l 405 521 l 571 432 z "},"+":{"ha":694,"x_min":0,"x_max":579,"o":"m 579 347 l 347 347 l 347 116 l 231 116 l 231 347 l 0 347 l 0 463 l 231 463 l 231 694 l 347 694 l 347 463 l 579 463 l 579 347 z "},",":{"ha":694,"x_min":145,"x_max":405,"o":"m 405 -50 l 225 -230 l 145 -150 l 289 -6 l 289 29 q 208 63 242 29 q 174 145 174 97 q 208 226 174 192 q 289 260 242 260 q 371 226 337 260 q 405 145 405 192 l 405 -50 z "},"-":{"ha":694,"x_min":116,"x_max":463,"o":"m 463 347 l 116 347 l 116 463 l 463 463 l 463 347 z "},"‐":{"ha":694,"x_min":116,"x_max":463,"o":"m 463 347 l 116 347 l 116 463 l 463 463 l 463 347 z "},".":{"ha":694,"x_min":174,"x_max":400,"o":"m 400 145 q 369 63 400 96 q 289 29 337 29 q 208 63 242 29 q 174 145 174 97 q 208 226 174 192 q 289 260 242 260 q 369 227 337 260 q 400 145 400 193 z "},"/":{"ha":694,"x_min":0,"x_max":661,"o":"m 661 873 l 103 -220 l 0 -168 l 558 926 l 661 873 z "},":":{"ha":694,"x_min":174,"x_max":405,"o":"m 405 492 q 371 410 405 444 q 289 376 337 376 q 208 410 242 376 q 174 492 174 444 q 208 573 174 539 q 289 608 242 608 q 371 573 337 608 q 405 492 405 539 m 405 145 q 371 63 405 97 q 289 29 337 29 q 208 63 242 29 q 174 145 174 97 q 208 226 174 192 q 289 260 242 260 q 371 226 337 260 q 405 145 405 192 z "},";":{"ha":694,"x_min":145,"x_max":405,"o":"m 405 492 q 371 410 405 444 q 289 376 337 376 q 208 410 242 376 q 174 492 174 444 q 208 573 174 539 q 289 608 242 608 q 371 573 337 608 q 405 492 405 539 m 405 -50 l 225 -230 l 145 -150 l 289 -6 l 289 29 q 208 63 242 29 q 174 145 174 97 q 208 226 174 192 q 289 260 242 260 q 371 226 337 260 q 405 145 405 192 l 405 -50 z "},"<":{"ha":694,"x_min":91,"x_max":608,"o":"m 608 51 l 528 -28 l 91 405 l 521 832 l 601 752 l 256 405 l 608 51 z "},"=":{"ha":694,"x_min":0,"x_max":579,"o":"m 579 463 l 0 463 l 0 579 l 579 579 l 579 463 m 579 231 l 0 231 l 0 347 l 579 347 l 579 231 z "},">":{"ha":694,"x_min":87,"x_max":603,"o":"m 603 405 l 174 -21 l 94 58 l 439 405 l 87 759 l 167 839 l 603 405 z "},"?":{"ha":694,"x_min":0,"x_max":579,"o":"m 579 579 q 553 472 579 521 l 311 231 l 231 231 l 231 311 l 455 536 q 463 579 463 553 q 429 660 463 626 q 347 694 395 694 l 231 694 q 150 660 184 694 q 116 579 116 626 l 0 579 q 68 742 0 674 q 231 810 137 810 l 347 810 q 510 742 442 810 q 579 579 579 675 m 347 58 q 330 17 347 34 q 289 0 314 0 q 248 17 265 0 q 231 58 231 34 q 248 99 231 82 q 289 116 265 116 q 330 99 314 116 q 347 58 347 82 z "},"@":{"ha":694,"x_min":0,"x_max":579,"o":"m 579 0 l 231 0 q 68 68 137 0 q 0 231 0 137 l 0 579 q 68 742 0 674 q 231 810 137 810 l 347 810 q 510 742 442 810 q 579 579 579 674 l 579 347 q 545 265 579 299 q 463 231 510 231 l 347 231 q 266 267 300 231 q 231 347 231 302 l 231 463 q 266 545 231 510 q 347 579 300 579 l 463 579 q 429 660 463 626 q 347 694 395 694 l 231 694 q 150 660 184 694 q 116 579 116 626 l 116 231 q 150 150 116 184 q 231 116 184 116 l 579 116 l 579 0 m 463 376 l 463 434 q 434 463 463 463 l 376 463 q 347 434 347 463 l 347 376 q 376 347 347 347 l 434 347 q 463 376 463 347 z "},"A":{"ha":694,"x_min":0,"x_max":579,"o":"m 116 231 l 116 0 l 0 0 l 0 376 l 218 810 l 362 810 l 579 376 l 579 0 l 463 0 l 463 231 l 116 231 m 289 694 l 116 347 l 463 347 l 289 694 z "},"B":{"ha":694,"x_min":0,"x_max":579,"o":"m 579 579 q 480 405 579 475 q 579 231 579 336 q 511 68 579 135 q 347 0 443 0 l 0 0 l 0 810 l 347 810 q 511 742 443 810 q 579 579 579 675 m 116 694 l 116 463 l 347 463 q 429 497 395 463 q 463 579 463 531 q 429 660 463 626 q 347 694 395 694 l 116 694 m 116 347 l 116 116 l 347 116 q 429 150 395 116 q 463 231 463 184 q 429 313 463 279 q 347 347 395 347 l 116 347 z "},"C":{"ha":694,"x_min":0,"x_max":579,"o":"m 579 231 q 510 68 579 137 q 347 0 442 0 l 231 0 q 68 68 137 0 q 0 231 0 137 l 0 579 q 68 742 0 674 q 231 810 137 810 l 347 810 q 510 742 442 810 q 579 579 579 674 l 463 579 q 429 660 463 626 q 347 694 395 694 l 231 694 q 150 660 184 694 q 116 579 116 626 l 116 231 q 150 150 116 184 q 231 116 184 116 l 347 116 q 429 150 395 116 q 463 231 463 184 l 579 231 z "},"D":{"ha":694,"x_min":0,"x_max":579,"o":"m 579 231 q 510 68 579 137 q 347 0 442 0 l 0 0 l 0 810 l 347 810 q 510 742 442 810 q 579 579 579 674 l 579 231 m 463 231 l 463 579 q 429 660 463 626 q 347 694 395 694 l 116 694 l 116 116 l 347 116 q 429 150 395 116 q 463 231 463 184 z "},"E":{"ha":694,"x_min":0,"x_max":579,"o":"m 579 0 l 0 0 l 0 810 l 579 810 l 579 694 l 116 694 l 116 463 l 463 463 l 463 347 l 116 347 l 116 116 l 579 116 l 579 0 z "},"F":{"ha":694,"x_min":0,"x_max":579,"o":"m 579 694 l 116 694 l 116 463 l 463 463 l 463 347 l 116 347 l 116 0 l 0 0 l 0 810 l 579 810 l 579 694 z "},"G":{"ha":694,"x_min":0,"x_max":579,"o":"m 579 231 q 510 68 579 137 q 347 0 442 0 l 231 0 q 68 68 137 0 q 0 231 0 137 l 0 579 q 68 742 0 674 q 231 810 137 810 l 347 810 q 510 742 442 810 q 579 579 579 674 l 463 579 q 429 660 463 626 q 347 694 395 694 l 231 694 q 150 660 184 694 q 116 579 116 626 l 116 231 q 150 150 116 184 q 231 116 184 116 l 347 116 q 429 150 395 116 q 463 231 463 184 l 463 347 l 347 347 l 347 463 l 579 463 l 579 231 z "},"H":{"ha":694,"x_min":0,"x_max":579,"o":"m 579 0 l 463 0 l 463 347 l 116 347 l 116 0 l 0 0 l 0 810 l 116 810 l 116 463 l 463 463 l 463 810 l 579 810 l 579 0 z "},"I":{"ha":694,"x_min":0,"x_max":579,"o":"m 579 0 l 0 0 l 0 116 l 231 116 l 231 694 l 0 694 l 0 810 l 579 810 l 579 694 l 347 694 l 347 116 l 579 116 l 579 0 z "},"J":{"ha":694,"x_min":0,"x_max":579,"o":"m 579 231 q 510 68 579 135 q 347 0 442 0 l 231 0 q 68 68 137 0 q 0 231 0 137 l 0 347 l 116 347 l 116 231 q 150 150 116 184 q 231 116 184 116 l 347 116 q 429 150 395 116 q 463 231 463 184 l 463 810 l 579 810 l 579 231 z "},"K":{"ha":694,"x_min":0,"x_max":579,"o":"m 579 0 l 463 0 l 116 347 l 116 0 l 0 0 l 0 810 l 116 810 l 116 463 l 463 810 l 579 810 l 579 767 l 216 405 l 579 44 l 579 0 z "},"L":{"ha":694,"x_min":0,"x_max":579,"o":"m 579 0 l 0 0 l 0 810 l 116 810 l 116 116 l 579 116 l 579 0 z "},"M":{"ha":694,"x_min":0,"x_max":579,"o":"m 579 0 l 463 0 l 463 608 l 347 492 l 347 347 l 231 347 l 231 492 l 116 608 l 116 0 l 0 0 l 0 810 l 87 810 l 289 608 l 492 810 l 579 810 l 579 0 z "},"N":{"ha":694,"x_min":0,"x_max":579,"o":"m 579 0 l 463 0 l 463 267 l 116 615 l 116 0 l 0 0 l 0 810 l 80 810 l 463 427 l 463 810 l 579 810 l 579 0 z "},"O":{"ha":694,"x_min":0,"x_max":579,"o":"m 579 231 q 510 68 579 137 q 347 0 442 0 l 231 0 q 68 68 137 0 q 0 231 0 137 l 0 579 q 68 742 0 674 q 231 810 137 810 l 347 810 q 510 742 442 810 q 579 579 579 674 l 579 231 m 463 231 l 463 579 q 429 660 463 626 q 347 694 395 694 l 231 694 q 150 660 184 694 q 116 579 116 626 l 116 231 q 150 150 116 184 q 231 116 184 116 l 347 116 q 429 150 395 116 q 463 231 463 184 z "},"P":{"ha":694,"x_min":0,"x_max":579,"o":"m 579 579 q 510 416 579 484 q 347 347 442 347 l 116 347 l 116 0 l 0 0 l 0 810 l 347 810 q 511 742 443 810 q 579 579 579 675 m 463 579 q 429 660 463 626 q 347 694 395 694 l 116 694 l 116 463 l 347 463 q 429 497 395 463 q 463 579 463 531 z "},"Q":{"ha":694,"x_min":0,"x_max":591,"o":"m 591 -44 l 509 -127 l 380 2 q 347 0 359 0 l 231 0 q 68 68 137 0 q 0 231 0 137 l 0 579 q 68 742 0 674 q 231 810 137 810 l 347 810 q 510 742 442 810 q 579 579 579 674 l 579 231 q 493 52 579 120 l 591 -44 m 463 231 l 463 579 q 429 660 463 626 q 347 694 395 694 l 231 694 q 150 660 184 694 q 116 579 116 626 l 116 231 q 150 149 116 183 q 231 116 184 115 l 265 117 l 220 162 l 302 243 l 411 134 q 463 231 463 169 z "},"R":{"ha":694,"x_min":0,"x_max":579,"o":"m 463 0 l 463 231 q 429 313 463 279 q 347 347 395 347 l 116 347 l 116 0 l 0 0 l 0 810 l 347 810 q 511 742 443 810 q 579 579 579 675 q 480 405 579 475 q 579 231 579 336 l 579 0 l 463 0 m 116 463 l 347 463 q 429 497 395 463 q 463 579 463 531 q 429 660 463 626 q 347 694 395 694 l 116 694 l 116 463 z "},"S":{"ha":694,"x_min":0,"x_max":579,"o":"m 579 231 q 510 68 579 137 q 347 0 442 0 l 231 0 q 68 68 137 0 q 0 231 0 135 l 116 231 q 150 150 116 184 q 231 116 184 116 l 347 116 q 429 150 395 116 q 463 231 463 184 q 429 313 463 279 q 347 347 395 347 l 231 347 q 68 416 137 347 q 0 579 0 484 q 68 742 0 674 q 231 810 137 810 l 347 810 q 510 742 442 810 q 579 579 579 674 l 463 579 q 429 660 463 626 q 347 694 395 694 l 231 694 q 150 660 184 694 q 116 579 116 626 q 150 497 116 531 q 231 463 184 463 l 347 463 q 510 395 442 463 q 579 231 579 326 z "},"T":{"ha":694,"x_min":0,"x_max":579,"o":"m 579 694 l 347 694 l 347 0 l 231 0 l 231 694 l 0 694 l 0 810 l 579 810 l 579 694 z "},"U":{"ha":694,"x_min":0,"x_max":579,"o":"m 579 231 q 510 68 579 135 q 347 0 442 0 l 231 0 q 68 68 137 0 q 0 231 0 135 l 0 810 l 116 810 l 116 231 q 150 150 116 184 q 231 116 184 116 l 347 116 q 429 150 395 116 q 463 231 463 184 l 463 810 l 579 810 l 579 231 z "},"V":{"ha":694,"x_min":0,"x_max":579,"o":"m 579 579 l 289 0 l 0 579 l 0 810 l 116 810 l 116 605 l 289 260 l 463 608 l 463 810 l 579 810 l 579 579 z "},"W":{"ha":694,"x_min":0,"x_max":579,"o":"m 579 0 l 492 0 l 289 203 l 87 0 l 0 0 l 0 810 l 116 810 l 116 203 l 231 318 l 231 463 l 347 463 l 347 318 l 463 203 l 463 810 l 579 810 l 579 0 z "},"X":{"ha":694,"x_min":0,"x_max":579,"o":"m 579 0 l 463 0 l 463 152 l 289 325 l 116 152 l 116 0 l 0 0 l 0 196 l 209 405 l 0 615 l 0 810 l 116 810 l 116 659 l 289 485 l 463 659 l 463 810 l 579 810 l 579 615 l 369 405 l 579 196 l 579 0 z "},"Y":{"ha":694,"x_min":0,"x_max":579,"o":"m 579 499 l 347 267 l 347 0 l 231 0 l 231 267 l 0 499 l 0 810 l 116 810 l 116 543 l 289 369 l 463 543 l 463 810 l 579 810 l 579 499 z "},"Z":{"ha":694,"x_min":0,"x_max":579,"o":"m 579 0 l 0 0 l 0 207 l 463 669 l 463 694 l 0 694 l 0 810 l 579 810 l 579 623 l 116 160 l 116 116 l 579 116 l 579 0 z "},"[":{"ha":694,"x_min":231,"x_max":463,"o":"m 463 -115 l 231 -115 l 231 926 l 463 926 l 463 810 l 347 810 l 347 0 l 463 0 l 463 -115 z "},"\\":{"ha":694,"x_min":41,"x_max":694,"o":"m 694 -168 l 600 -220 l 41 874 l 144 927 l 694 -168 z "},"]":{"ha":694,"x_min":116,"x_max":347,"o":"m 347 -115 l 116 -115 l 116 0 l 231 0 l 231 810 l 116 810 l 116 926 l 347 926 l 347 -115 z "},"^":{"ha":694,"x_min":2,"x_max":616,"o":"m 616 527 l 535 444 l 309 670 l 84 446 l 2 528 l 309 834 l 616 527 z "},"_":{"ha":694,"x_min":0,"x_max":694,"o":"m 694 -230 l 0 -230 l 0 -115 l 694 -115 l 694 -230 z "},"`":{"ha":694,"x_min":94,"x_max":361,"o":"m 361 737 l 282 659 l 94 846 l 174 926 l 361 737 z "},"a":{"ha":694,"x_min":0,"x_max":579,"o":"m 579 579 l 579 0 l 463 0 l 463 160 l 391 87 q 231 0 304 0 q 68 68 135 0 q 0 231 0 135 l 0 347 q 68 511 0 443 q 231 579 135 579 l 579 579 m 231 463 q 150 429 184 463 q 116 347 116 395 l 116 231 q 150 150 116 184 q 231 116 184 116 q 347 174 289 116 l 463 289 l 463 463 l 231 463 z "},"b":{"ha":694,"x_min":0,"x_max":579,"o":"m 579 231 q 510 68 579 137 q 347 0 442 0 l 0 0 l 0 810 l 116 810 l 116 579 l 347 579 q 510 510 442 579 q 579 347 579 442 l 579 231 m 463 231 l 463 347 q 429 429 463 395 q 347 463 395 463 l 116 463 l 116 116 l 347 116 q 429 150 395 116 q 463 231 463 184 z "},"c":{"ha":694,"x_min":0,"x_max":579,"o":"m 579 0 l 231 0 q 68 68 137 0 q 0 231 0 137 l 0 347 q 68 510 0 442 q 231 579 137 579 l 347 579 q 510 510 442 579 q 579 347 579 442 l 463 347 q 429 429 463 395 q 347 463 395 463 l 231 463 q 150 429 184 463 q 116 347 116 395 l 116 231 q 150 150 116 184 q 231 116 184 116 l 579 116 l 579 0 z "},"d":{"ha":694,"x_min":0,"x_max":579,"o":"m 579 0 l 231 0 q 68 68 137 0 q 0 231 0 137 l 0 347 q 68 510 0 442 q 231 579 137 579 l 463 579 l 463 810 l 579 810 l 579 0 m 463 116 l 463 463 l 231 463 q 150 429 184 463 q 116 347 116 395 l 116 231 q 150 150 116 184 q 231 116 184 116 l 463 116 z "},"e":{"ha":694,"x_min":0,"x_max":579,"o":"m 579 0 l 231 0 q 68 68 137 0 q 0 231 0 137 l 0 347 q 68 510 0 442 q 231 579 137 579 l 347 579 q 510 510 442 579 q 579 347 579 442 l 579 231 l 116 231 q 150 150 116 184 q 231 116 184 116 l 579 116 l 579 0 m 463 347 q 429 429 463 395 q 347 463 395 463 l 231 463 q 150 429 184 463 q 116 347 116 395 l 463 347 z "},"f":{"ha":694,"x_min":116,"x_max":579,"o":"m 579 694 l 463 694 q 381 660 416 694 q 347 579 347 626 l 463 579 l 463 463 l 347 463 l 347 0 l 231 0 l 231 463 l 116 463 l 116 579 l 231 579 q 300 742 231 674 q 463 810 368 810 l 579 810 l 579 694 z "},"g":{"ha":694,"x_min":0,"x_max":579,"o":"m 579 0 q 510 -163 579 -95 q 347 -230 442 -230 l 116 -230 l 116 -115 l 347 -115 q 429 -80 395 -115 q 463 0 463 -46 l 231 0 q 68 68 137 0 q 0 231 0 137 l 0 347 q 68 510 0 442 q 231 579 137 579 l 579 579 l 579 0 m 463 116 l 463 463 l 231 463 q 150 429 184 463 q 116 347 116 395 l 116 231 q 150 150 116 184 q 231 116 184 116 l 463 116 z "},"h":{"ha":694,"x_min":0,"x_max":579,"o":"m 579 0 l 463 0 l 463 347 q 429 429 463 395 q 347 463 395 463 l 116 463 l 116 0 l 0 0 l 0 810 l 116 810 l 116 579 l 347 579 q 510 510 442 579 q 579 347 579 442 l 579 0 z "},"i":{"ha":694,"x_min":116,"x_max":463,"o":"m 347 752 q 330 711 347 728 q 289 694 314 694 q 248 711 265 694 q 231 752 231 728 q 248 793 231 777 q 289 810 265 810 q 330 793 314 810 q 347 752 347 777 m 463 0 l 116 0 l 116 116 l 231 116 l 231 463 l 116 463 l 116 579 l 347 579 l 347 116 l 463 116 l 463 0 z "},"j":{"ha":694,"x_min":0,"x_max":347,"o":"m 347 752 q 330 711 347 728 q 289 694 314 694 q 248 711 265 694 q 231 752 231 728 q 248 793 231 777 q 289 810 265 810 q 330 793 314 810 q 347 752 347 777 m 347 0 q 279 -163 347 -95 q 116 -230 211 -230 l 0 -230 l 0 -115 l 116 -115 q 197 -80 163 -115 q 231 0 231 -46 l 231 463 l 116 463 l 116 579 l 347 579 l 347 0 z "},"k":{"ha":694,"x_min":0,"x_max":579,"o":"m 579 0 l 499 0 l 231 267 l 116 152 l 116 0 l 0 0 l 0 810 l 116 810 l 116 311 l 383 579 l 543 579 l 311 347 l 579 80 l 579 0 z "},"l":{"ha":694,"x_min":116,"x_max":463,"o":"m 463 0 l 116 0 l 116 116 l 231 116 l 231 694 l 116 694 l 116 810 l 347 810 l 347 116 l 463 116 l 463 0 z "},"m":{"ha":694,"x_min":0,"x_max":579,"o":"m 579 0 l 463 0 l 463 347 q 429 429 463 395 q 347 463 395 463 l 347 0 l 231 0 l 231 463 l 116 463 l 116 0 l 0 0 l 0 579 l 347 579 q 510 510 442 579 q 579 347 579 442 l 579 0 z "},"n":{"ha":694,"x_min":0,"x_max":579,"o":"m 116 579 l 116 420 l 189 492 q 347 579 275 579 q 511 511 443 579 q 579 347 579 443 l 579 0 l 463 0 l 463 347 q 429 429 463 395 q 347 463 395 463 q 231 405 289 463 l 116 289 l 116 0 l 0 0 l 0 579 l 116 579 z "},"o":{"ha":694,"x_min":0,"x_max":579,"o":"m 579 231 q 510 68 579 137 q 347 0 442 0 l 231 0 q 68 68 137 0 q 0 231 0 137 l 0 347 q 68 510 0 442 q 231 579 137 579 l 347 579 q 510 510 442 579 q 579 347 579 442 l 579 231 m 463 231 l 463 347 q 429 429 463 395 q 347 463 395 463 l 231 463 q 150 429 184 463 q 116 347 116 395 l 116 231 q 150 150 116 184 q 231 116 184 116 l 347 116 q 429 150 395 116 q 463 231 463 184 z "},"p":{"ha":694,"x_min":0,"x_max":579,"o":"m 579 231 q 510 68 579 137 q 347 0 442 0 l 116 0 l 116 -230 l 0 -230 l 0 579 l 347 579 q 510 510 442 579 q 579 347 579 442 l 579 231 m 463 231 l 463 347 q 429 429 463 395 q 347 463 395 463 l 116 463 l 116 116 l 347 116 q 429 150 395 116 q 463 231 463 184 z "},"q":{"ha":694,"x_min":0,"x_max":579,"o":"m 579 -230 l 463 -230 l 463 0 l 231 0 q 68 68 137 0 q 0 231 0 137 l 0 347 q 68 510 0 442 q 231 579 137 579 l 579 579 l 579 -230 m 463 116 l 463 463 l 231 463 q 150 429 184 463 q 116 347 116 395 l 116 231 q 150 150 116 184 q 231 116 184 116 l 463 116 z "},"r":{"ha":694,"x_min":0,"x_max":579,"o":"m 116 579 l 116 420 l 189 492 q 347 579 275 579 q 511 511 443 579 q 579 347 579 443 l 463 347 q 429 429 463 395 q 347 463 395 463 q 231 405 289 463 l 116 289 l 116 0 l 0 0 l 0 579 l 116 579 z "},"s":{"ha":694,"x_min":0,"x_max":579,"o":"m 579 579 l 579 463 l 275 463 q 173 446 215 463 q 131 405 131 429 q 173 364 131 381 q 275 347 215 347 l 304 347 q 488 296 412 347 q 565 174 565 245 q 488 51 565 102 q 304 0 412 0 l 0 0 l 0 116 l 304 116 q 406 133 363 116 q 449 174 449 149 q 406 215 449 198 q 304 231 363 231 l 275 231 q 91 282 167 231 q 15 405 15 333 q 91 528 15 477 q 275 579 167 579 l 579 579 z "},"t":{"ha":694,"x_min":116,"x_max":579,"o":"m 579 0 l 463 0 q 300 68 368 0 q 231 231 231 137 l 231 463 l 116 463 l 116 579 l 231 579 l 231 810 l 347 810 l 347 579 l 463 579 l 463 463 l 347 463 l 347 231 q 381 150 347 184 q 463 116 416 116 l 579 116 l 579 0 z "},"u":{"ha":694,"x_min":0,"x_max":579,"o":"m 463 0 l 463 160 l 391 87 q 231 0 304 0 q 68 68 135 0 q 0 231 0 135 l 0 579 l 116 579 l 116 231 q 150 150 116 184 q 231 116 184 116 q 347 174 289 116 l 463 289 l 463 579 l 579 579 l 579 0 l 463 0 z "},"v":{"ha":694,"x_min":0,"x_max":579,"o":"m 579 463 l 347 0 l 231 0 l 0 463 l 0 579 l 116 579 l 116 492 l 289 145 l 463 492 l 463 579 l 579 579 l 579 463 z "},"w":{"ha":694,"x_min":0,"x_max":579,"o":"m 282 116 q 174 0 235 0 q 51 76 102 0 q 0 260 0 153 l 0 579 l 116 579 l 116 260 q 133 157 116 200 q 174 115 149 115 q 215 157 198 115 q 231 260 231 200 l 231 579 l 347 579 l 347 260 q 364 158 347 200 q 405 116 381 116 q 446 158 429 116 q 463 260 463 200 l 463 579 l 579 579 l 579 260 q 528 76 579 153 q 405 0 477 0 q 296 116 344 0 l 282 116 z "},"x":{"ha":694,"x_min":0,"x_max":579,"o":"m 579 0 l 463 0 l 463 36 l 289 209 l 116 36 l 116 0 l 0 0 l 0 80 l 209 289 l 0 499 l 0 579 l 116 579 l 116 543 l 289 369 l 463 543 l 463 579 l 579 579 l 579 499 l 369 289 l 579 80 l 579 0 z "},"y":{"ha":694,"x_min":0,"x_max":579,"o":"m 579 0 q 510 -163 579 -95 q 347 -230 442 -230 l 116 -230 l 116 -115 l 347 -115 q 429 -80 395 -115 q 463 0 463 -46 l 231 0 q 68 68 137 0 q 0 231 0 137 l 0 579 l 116 579 l 116 231 q 150 150 116 184 q 231 116 184 116 l 463 116 l 463 579 l 579 579 l 579 0 z "},"z":{"ha":694,"x_min":0,"x_max":579,"o":"m 579 0 l 0 0 l 0 80 l 383 463 l 0 463 l 0 579 l 579 579 l 579 499 l 196 116 l 579 116 l 579 0 z "},"{":{"ha":694,"x_min":116,"x_max":463,"o":"m 463 -230 q 299 -171 367 -230 q 231 -28 231 -111 l 231 231 q 197 313 231 279 q 116 347 163 347 l 116 463 q 197 497 163 463 q 231 579 231 531 l 231 839 q 299 982 231 922 q 463 1042 367 1042 l 463 926 q 381 892 416 926 q 347 810 347 858 l 347 521 q 231 412 347 459 l 231 398 q 347 289 347 351 l 347 0 q 381 -80 347 -46 q 463 -115 416 -115 l 463 -230 z "},"|":{"ha":694,"x_min":231,"x_max":347,"o":"m 347 -115 l 231 -115 l 231 926 l 347 926 l 347 -115 z "},"}":{"ha":694,"x_min":116,"x_max":463,"o":"m 463 347 q 381 313 416 347 q 347 231 347 279 l 347 -28 q 280 -171 347 -111 q 116 -230 212 -230 l 116 -115 q 197 -80 163 -115 q 231 0 231 -46 l 231 289 q 347 398 231 351 l 347 412 q 231 521 231 459 l 231 810 q 197 892 231 858 q 116 926 163 926 l 116 1042 q 280 982 212 1042 q 347 839 347 922 l 347 579 q 381 497 347 531 q 463 463 416 463 l 463 347 z "},"~":{"ha":694,"x_min":0,"x_max":579,"o":"m 579 521 q 528 398 579 449 q 405 347 477 347 q 289 391 333 347 q 174 463 218 463 q 133 446 149 463 q 116 405 116 429 l 116 347 l 0 347 l 0 405 q 51 528 0 477 q 174 579 102 579 q 289 536 247 579 q 405 463 362 463 q 446 480 429 463 q 463 521 463 497 l 463 579 l 579 579 l 579 521 z "}," ":{"ha":694,"x_min":0,"x_max":0,"o":""},"¡":{"ha":694,"x_min":347,"x_max":463,"o":"m 463 752 q 446 711 463 728 q 405 694 429 694 q 364 711 381 694 q 347 752 347 728 q 364 793 347 777 q 405 810 381 810 q 446 793 429 810 q 463 752 463 777 m 463 0 l 347 0 l 347 579 l 463 579 l 463 0 z "},"¢":{"ha":694,"x_min":0,"x_max":579,"o":"m 579 0 l 347 0 l 347 -115 l 231 -115 l 231 0 q 68 68 137 0 q 0 231 0 137 l 0 347 q 68 510 0 442 q 231 579 137 579 l 231 694 l 347 694 l 347 579 q 510 510 442 579 q 579 347 579 442 l 463 347 q 429 429 463 395 q 347 463 395 463 l 347 116 l 579 116 l 579 0 m 231 116 l 231 463 q 150 429 184 463 q 116 347 116 395 l 116 231 q 150 150 116 184 q 231 116 184 116 z "},"£":{"ha":694,"x_min":0,"x_max":579,"o":"m 579 231 q 508 71 579 141 q 347 0 438 0 l 0 0 l 0 694 q 68 858 0 789 q 231 926 137 926 q 395 858 326 926 q 463 694 463 789 l 347 694 q 313 776 347 742 q 231 810 279 810 q 150 776 184 810 q 116 694 116 742 l 116 579 l 347 579 l 347 463 l 116 463 l 116 116 l 347 116 q 426 153 389 116 q 463 231 463 190 l 579 231 z "},"¤":{"ha":694,"x_min":0,"x_max":579,"o":"m 579 82 l 497 0 l 365 133 q 289 116 330 116 q 214 133 249 116 l 82 0 l 0 82 l 133 214 q 116 289 116 249 q 133 365 116 330 l 0 497 l 82 579 l 214 446 q 289 463 249 463 q 365 446 330 463 l 497 579 l 579 497 l 446 365 q 463 289 463 330 q 446 214 463 249 l 579 82 m 347 289 q 330 330 347 314 q 289 347 314 347 q 248 330 265 347 q 231 289 231 314 q 248 248 231 265 q 289 231 265 231 q 330 248 314 231 q 347 289 347 265 z "},"¥":{"ha":694,"x_min":0,"x_max":622,"o":"m 622 752 l 448 579 l 601 579 l 601 463 l 369 463 l 369 347 l 601 347 l 601 231 l 369 231 l 369 0 l 253 0 l 253 231 l 22 231 l 22 347 l 253 347 l 253 463 l 22 463 l 22 579 l 174 579 l 0 752 l 80 832 l 311 601 l 543 832 l 622 752 z "},"¦":{"ha":694,"x_min":231,"x_max":347,"o":"m 347 463 l 231 463 l 231 926 l 347 926 l 347 463 m 347 -115 l 231 -115 l 231 347 l 347 347 l 347 -115 z "},"§":{"ha":694,"x_min":0,"x_max":580,"o":"m 579 231 l 463 231 l 463 383 l 58 787 q 32 850 32 813 q 98 978 32 914 q 231 1042 163 1042 l 347 1042 q 511 974 443 1042 q 579 810 579 906 q 579 694 580 692 l 463 694 l 463 810 q 429 892 463 858 q 347 926 395 926 l 218 926 q 177 909 193 926 q 160 868 160 892 q 167 840 160 852 l 579 427 l 579 231 m 521 139 q 546 76 546 113 q 481 -52 546 12 q 347 -115 416 -115 l 231 -115 q 68 -47 137 -115 q 0 116 0 21 l 0 231 l 116 231 l 116 116 q 150 34 116 68 q 231 0 184 0 l 362 0 q 403 17 385 0 q 420 58 420 34 q 413 86 420 73 l 0 499 l 0 694 l 116 694 l 116 543 l 521 139 z "},"¨":{"ha":694,"x_min":116,"x_max":463,"o":"m 463 752 q 446 711 463 728 q 405 694 429 694 q 364 711 381 694 q 347 752 347 728 q 364 793 347 777 q 405 810 381 810 q 446 793 429 810 q 463 752 463 777 m 231 752 q 215 711 231 728 q 174 694 198 694 q 133 711 149 694 q 116 752 116 728 q 133 793 116 777 q 174 810 149 810 q 215 793 198 810 q 231 752 231 777 z "},"©":{"ha":694,"x_min":0,"x_max":579,"o":"m 579 405 q 460 119 579 237 q 174 0 341 0 q 0 39 82 0 l 0 174 q 174 116 76 116 q 378 200 294 116 q 463 405 463 285 q 378 610 463 525 q 174 694 294 694 q 0 637 79 694 l 0 771 q 174 810 82 810 q 460 692 341 810 q 579 405 579 573 m 347 231 l 174 231 q 51 282 102 231 q 0 405 0 333 q 51 528 0 477 q 174 579 102 579 l 347 579 l 347 463 l 174 463 q 133 446 149 463 q 116 405 116 429 q 133 364 116 381 q 174 347 149 347 l 347 347 l 347 231 z "},"ª":{"ha":694,"x_min":116,"x_max":579,"o":"m 579 579 l 347 579 q 184 647 252 579 q 116 810 116 715 q 184 973 116 905 q 347 1042 252 1042 l 579 1042 l 579 579 m 579 347 l 116 347 l 116 463 l 579 463 l 579 347 m 463 694 l 463 926 l 347 926 q 266 892 300 926 q 231 810 231 858 q 266 729 231 763 q 347 694 300 694 l 463 694 z "},"«":{"ha":694,"x_min":0,"x_max":567,"o":"m 567 10 l 461 -34 l 347 231 l 461 498 l 567 453 l 470 231 l 567 10 m 220 10 l 113 -34 l 0 231 l 113 498 l 220 453 l 123 231 l 220 10 z "},"¬":{"ha":694,"x_min":0,"x_max":579,"o":"m 579 116 l 463 116 l 463 347 l 0 347 l 0 463 l 579 463 l 579 116 z "},"­":{"ha":694,"x_min":0,"x_max":579,"o":"m 579 347 l 0 347 l 0 463 l 579 463 l 579 347 z "},"−":{"ha":694,"x_min":0,"x_max":579,"o":"m 579 347 l 0 347 l 0 463 l 579 463 l 579 347 z "},"®":{"ha":694,"x_min":0,"x_max":579,"o":"m 579 318 q 520 175 579 234 q 376 116 461 116 l 266 116 l 152 231 l 116 231 l 116 116 l 0 116 l 0 579 l 174 579 q 296 528 245 579 q 347 405 347 477 q 278 267 347 319 l 314 231 l 332 231 q 425 270 387 231 q 463 362 463 308 l 463 405 q 378 610 463 525 q 174 694 294 694 q 0 637 79 694 l 0 771 q 174 810 82 810 q 460 692 341 810 q 579 405 579 573 l 579 318 m 231 405 q 215 446 231 429 q 174 463 198 463 l 116 463 l 116 347 l 174 347 q 215 364 198 347 q 231 405 231 381 z "},"¯":{"ha":694,"x_min":116,"x_max":463,"o":"m 463 694 l 116 694 l 116 810 l 463 810 l 463 694 z "},"ˉ":{"ha":694,"x_min":116,"x_max":463,"o":"m 463 694 l 116 694 l 116 810 l 463 810 l 463 694 z "},"°":{"ha":694,"x_min":116,"x_max":579,"o":"m 579 694 q 511 531 579 600 q 347 463 443 463 q 184 531 252 463 q 116 694 116 600 q 184 858 116 791 q 347 926 252 926 q 510 858 442 926 q 579 694 579 789 m 463 694 q 429 776 463 742 q 347 810 395 810 q 266 776 300 810 q 231 694 231 742 q 266 613 231 647 q 347 579 300 579 q 429 613 395 579 q 463 694 463 647 z "},"±":{"ha":694,"x_min":0,"x_max":579,"o":"m 579 0 l 0 0 l 0 116 l 231 116 l 231 347 l 0 347 l 0 463 l 231 463 l 231 694 l 347 694 l 347 463 l 579 463 l 579 347 l 347 347 l 347 116 l 579 116 l 579 0 z "},"²":{"ha":694,"x_min":174,"x_max":463,"o":"m 450 873 l 271 694 l 463 694 l 463 637 l 174 637 l 174 676 l 400 904 q 405 926 405 914 q 388 967 405 950 q 347 984 372 984 l 289 984 q 248 967 265 984 q 231 926 231 950 l 174 926 q 208 1008 174 973 q 289 1042 242 1042 l 347 1042 q 429 1008 395 1042 q 463 926 463 973 q 450 873 463 897 z "},"³":{"ha":694,"x_min":174,"x_max":463,"o":"m 231 752 q 248 711 231 728 q 289 694 265 694 l 347 694 q 388 711 372 694 q 405 752 405 728 q 388 793 405 777 q 347 810 372 810 l 289 810 l 289 868 l 347 868 q 388 885 372 868 q 405 926 405 902 q 388 967 405 950 q 347 984 372 984 l 289 984 q 248 967 265 984 q 231 926 231 950 l 174 926 q 208 1008 174 973 q 289 1042 242 1042 l 347 1042 q 429 1008 395 1042 q 463 926 463 973 q 414 839 463 874 q 463 752 463 804 q 429 671 463 705 q 347 637 395 637 l 289 637 q 208 671 242 637 q 174 752 174 705 l 231 752 z "},"´":{"ha":694,"x_min":222,"x_max":491,"o":"m 302 681 l 222 759 l 411 948 l 491 868 l 302 681 z "},"µ":{"ha":694,"x_min":0,"x_max":579,"o":"m 579 0 q 405 79 475 0 q 231 0 338 0 l 116 0 l 116 -230 l 0 -230 l 0 579 l 116 579 l 116 116 l 231 116 q 313 150 279 116 q 347 231 347 184 l 347 579 l 463 579 l 463 231 q 497 150 463 184 q 579 116 531 116 l 579 0 z "},"μ":{"ha":694,"x_min":0,"x_max":579,"o":"m 579 0 q 405 79 475 0 q 231 0 338 0 l 116 0 l 116 -230 l 0 -230 l 0 579 l 116 579 l 116 116 l 231 116 q 313 150 279 116 q 347 231 347 184 l 347 579 l 463 579 l 463 231 q 497 150 463 184 q 579 116 531 116 l 579 0 z "},"¶":{"ha":694,"x_min":0,"x_max":579,"o":"m 579 0 l 463 0 l 463 347 l 347 347 l 347 0 l 231 0 l 231 353 q 66 453 132 373 q 0 637 0 532 q 84 841 0 757 q 289 926 169 926 l 579 926 l 579 0 m 463 463 l 463 810 l 347 810 l 347 463 l 463 463 m 231 473 l 231 800 q 148 737 181 781 q 116 637 116 692 q 148 536 116 581 q 231 473 181 491 z "},"·":{"ha":694,"x_min":231,"x_max":463,"o":"m 463 376 q 429 295 463 329 q 347 260 395 260 q 266 295 300 260 q 231 376 231 329 q 266 458 231 424 q 347 492 300 492 q 429 458 395 492 q 463 376 463 424 z "},"∙":{"ha":694,"x_min":231,"x_max":463,"o":"m 463 376 q 429 295 463 329 q 347 260 395 260 q 266 295 300 260 q 231 376 231 329 q 266 458 231 424 q 347 492 300 492 q 429 458 395 492 q 463 376 463 424 z "},"¸":{"ha":694,"x_min":101,"x_max":347,"o":"m 181 -230 l 101 -150 l 231 -21 l 231 0 l 116 0 l 116 116 l 347 116 l 347 -64 l 181 -230 z "},"¹":{"ha":694,"x_min":174,"x_max":463,"o":"m 463 637 l 174 637 l 174 694 l 289 694 l 289 926 l 203 926 l 203 984 l 231 984 q 273 1001 256 984 q 289 1042 289 1017 l 347 1042 l 347 694 l 463 694 l 463 637 z "},"º":{"ha":694,"x_min":116,"x_max":579,"o":"m 579 810 q 511 647 579 715 q 347 579 443 579 q 184 646 252 579 q 116 810 116 714 q 184 974 116 906 q 347 1042 252 1042 q 510 973 442 1042 q 579 810 579 905 m 579 347 l 116 347 l 116 463 l 579 463 l 579 347 m 463 810 q 429 892 463 858 q 347 926 395 926 q 266 892 300 926 q 231 810 231 858 q 266 729 231 763 q 347 694 300 694 q 429 729 395 694 q 463 810 463 763 z "},"»":{"ha":694,"x_min":12,"x_max":579,"o":"m 579 231 l 465 -34 l 359 10 l 456 231 l 359 453 l 465 498 l 579 231 m 231 231 l 118 -34 l 12 10 l 109 231 l 12 453 l 118 498 l 231 231 z "},"¼":{"ha":694,"x_min":0,"x_max":694,"o":"m 347 637 l 58 637 l 58 694 l 174 694 l 174 926 l 87 926 l 87 984 l 116 984 q 157 1001 140 984 q 174 1042 174 1017 l 231 1042 l 231 694 l 347 694 l 347 637 m 694 756 l 41 102 l 0 142 l 654 796 l 694 756 m 539 405 l 579 405 l 579 174 l 637 174 l 637 116 l 579 116 l 579 58 l 637 58 l 637 0 l 463 0 l 463 58 l 521 58 l 521 116 l 347 116 l 347 213 l 539 405 m 405 192 l 405 174 l 521 174 l 521 308 l 405 192 z "},"½":{"ha":694,"x_min":0,"x_max":694,"o":"m 347 637 l 58 637 l 58 694 l 174 694 l 174 926 l 87 926 l 87 984 l 116 984 q 157 1001 140 984 q 174 1042 174 1017 l 231 1042 l 231 694 l 347 694 l 347 637 m 694 756 l 41 102 l 0 142 l 654 796 l 694 756 m 624 236 l 444 58 l 637 58 l 637 0 l 347 0 l 347 39 l 574 267 q 579 289 579 278 q 562 330 579 314 q 521 347 545 347 l 463 347 q 422 330 439 347 q 405 289 405 314 l 347 289 q 381 371 347 337 q 463 405 416 405 l 521 405 q 602 371 568 405 q 637 289 637 337 q 624 236 637 260 z "},"¾":{"ha":694,"x_min":0,"x_max":694,"o":"m 116 752 q 133 711 116 728 q 174 694 149 694 l 231 694 q 273 711 256 694 q 289 752 289 728 q 273 793 289 777 q 231 810 256 810 l 174 810 l 174 868 l 231 868 q 273 885 256 868 q 289 926 289 902 q 273 967 289 950 q 231 984 256 984 l 174 984 q 133 967 149 984 q 116 926 116 950 l 58 926 q 92 1008 58 973 q 174 1042 126 1042 l 231 1042 q 313 1008 279 1042 q 347 926 347 973 q 299 839 347 874 q 347 752 347 804 q 313 671 347 705 q 231 637 279 637 l 174 637 q 92 671 126 637 q 58 752 58 705 l 116 752 m 694 756 l 41 102 l 0 142 l 654 796 l 694 756 m 539 405 l 579 405 l 579 174 l 637 174 l 637 116 l 579 116 l 579 58 l 637 58 l 637 0 l 463 0 l 463 58 l 521 58 l 521 116 l 347 116 l 347 213 l 539 405 m 405 192 l 405 174 l 521 174 l 521 308 l 405 192 z "},"¿":{"ha":694,"x_min":0,"x_max":579,"o":"m 347 752 q 330 711 347 728 q 289 694 314 694 q 248 711 265 694 q 231 752 231 728 q 248 793 231 777 q 289 810 265 810 q 330 793 314 810 q 347 752 347 777 m 579 231 q 510 68 579 137 q 347 0 442 0 l 231 0 q 68 68 137 0 q 0 231 0 135 q 25 338 0 289 l 267 579 l 347 579 l 347 499 l 124 274 q 116 231 116 257 q 150 150 116 184 q 231 116 184 116 l 347 116 q 429 150 395 116 q 463 231 463 184 l 579 231 z "},"À":{"ha":694,"x_min":0,"x_max":579,"o":"m 247 810 l 94 962 l 174 1042 l 361 854 l 318 810 l 362 810 l 579 376 l 579 0 l 463 0 l 463 231 l 116 231 l 116 0 l 0 0 l 0 376 l 218 810 l 247 810 m 289 694 l 116 347 l 463 347 l 289 694 z "},"Á":{"ha":694,"x_min":0,"x_max":579,"o":"m 333 810 l 362 810 l 579 376 l 579 0 l 463 0 l 463 231 l 116 231 l 116 0 l 0 0 l 0 376 l 218 810 l 260 810 l 218 854 l 405 1042 l 485 962 l 333 810 m 289 694 l 116 347 l 463 347 l 289 694 z "},"Â":{"ha":694,"x_min":0,"x_max":579,"o":"m 289 883 l 181 774 l 101 854 l 289 1042 l 478 854 l 398 774 l 289 883 m 116 231 l 116 0 l 0 0 l 0 376 l 218 810 l 362 810 l 579 376 l 579 0 l 463 0 l 463 231 l 116 231 m 289 694 l 116 347 l 463 347 l 289 694 z "},"Ã":{"ha":694,"x_min":0,"x_max":579,"o":"m 579 984 q 528 861 579 912 q 405 810 477 810 q 289 854 333 810 q 174 926 218 926 q 133 909 149 926 q 116 868 116 892 l 116 810 l 0 810 l 0 868 q 51 991 0 940 q 174 1042 102 1042 q 289 999 247 1042 q 405 926 362 926 q 446 943 429 926 q 463 984 463 959 l 463 1042 l 579 1042 l 579 984 m 116 231 l 116 0 l 0 0 l 0 376 l 218 810 l 362 810 l 579 376 l 579 0 l 463 0 l 463 231 l 116 231 m 289 694 l 116 347 l 463 347 l 289 694 z "},"Ä":{"ha":694,"x_min":0,"x_max":579,"o":"m 463 984 q 446 943 463 959 q 405 926 429 926 q 364 943 381 926 q 347 984 347 959 q 364 1025 347 1008 q 405 1042 381 1042 q 446 1025 429 1042 q 463 984 463 1008 m 231 984 q 215 943 231 959 q 174 926 198 926 q 133 943 149 926 q 116 984 116 959 q 133 1025 116 1008 q 174 1042 149 1042 q 215 1025 198 1042 q 231 984 231 1008 m 116 231 l 116 0 l 0 0 l 0 376 l 218 810 l 362 810 l 579 376 l 579 0 l 463 0 l 463 231 l 116 231 m 289 694 l 116 347 l 463 347 l 289 694 z "},"Å":{"ha":694,"x_min":0,"x_max":579,"o":"m 179 734 q 116 868 116 786 q 167 991 116 940 q 289 1042 218 1042 q 412 991 361 1042 q 463 868 463 940 q 399 734 463 786 l 579 376 l 579 0 l 463 0 l 463 231 l 116 231 l 116 0 l 0 0 l 0 376 l 179 734 m 231 868 q 248 827 231 844 q 289 810 265 810 q 330 827 314 810 q 347 868 347 844 q 330 909 347 892 q 289 926 314 926 q 248 909 265 926 q 231 868 231 892 m 289 694 l 116 347 l 463 347 l 289 694 z "},"Æ":{"ha":694,"x_min":0,"x_max":579,"o":"m 579 0 l 231 0 l 231 347 l 116 347 l 116 0 l 0 0 l 0 579 q 68 742 0 675 q 231 810 137 810 l 579 810 l 579 694 l 347 694 l 347 463 l 463 463 l 463 347 l 347 347 l 347 116 l 579 116 l 579 0 m 231 463 l 231 694 q 150 660 184 694 q 116 579 116 626 l 116 463 l 231 463 z "},"Ç":{"ha":694,"x_min":0,"x_max":579,"o":"m 579 231 q 511 68 579 135 q 347 0 443 0 l 325 0 l 369 -42 l 181 -230 l 101 -150 l 253 0 l 231 0 q 68 68 135 0 q 0 231 0 137 l 0 579 q 68 742 0 674 q 231 810 137 810 l 347 810 q 510 742 442 810 q 579 579 579 674 l 463 579 q 429 660 463 626 q 347 694 395 694 l 231 694 q 150 660 184 694 q 116 579 116 626 l 116 231 q 150 150 116 184 q 231 116 184 116 l 347 116 q 429 150 395 116 q 463 231 463 184 l 579 231 m 325 0 l 253 0 l 325 0 z "},"È":{"ha":694,"x_min":0,"x_max":579,"o":"m 318 810 l 579 810 l 579 694 l 116 694 l 116 463 l 463 463 l 463 347 l 116 347 l 116 116 l 579 116 l 579 0 l 0 0 l 0 810 l 247 810 l 94 962 l 174 1042 l 362 854 l 318 810 z "},"É":{"ha":694,"x_min":0,"x_max":579,"o":"m 340 810 l 579 810 l 579 694 l 116 694 l 116 463 l 463 463 l 463 347 l 116 347 l 116 116 l 579 116 l 579 0 l 0 0 l 0 810 l 253 810 l 218 846 l 405 1035 l 485 955 l 340 810 z "},"Ê":{"ha":694,"x_min":0,"x_max":579,"o":"m 579 0 l 0 0 l 0 810 l 145 810 l 101 853 l 289 1042 l 477 853 l 434 810 l 579 810 l 579 694 l 116 694 l 116 463 l 463 463 l 463 347 l 116 347 l 116 116 l 579 116 l 579 0 m 362 810 l 289 882 l 216 810 l 362 810 z "},"Ë":{"ha":694,"x_min":0,"x_max":579,"o":"m 463 984 q 446 943 463 959 q 405 926 429 926 q 364 943 381 926 q 347 984 347 959 q 364 1025 347 1008 q 405 1042 381 1042 q 446 1025 429 1042 q 463 984 463 1008 m 231 984 q 215 943 231 959 q 174 926 198 926 q 133 943 149 926 q 116 984 116 959 q 133 1025 116 1008 q 174 1042 149 1042 q 215 1025 198 1042 q 231 984 231 1008 m 579 0 l 0 0 l 0 810 l 579 810 l 579 694 l 116 694 l 116 463 l 463 463 l 463 347 l 116 347 l 116 116 l 579 116 l 579 0 z "},"Ì":{"ha":694,"x_min":0,"x_max":579,"o":"m 247 810 l 94 962 l 174 1042 l 362 854 l 318 810 l 579 810 l 579 694 l 347 694 l 347 116 l 579 116 l 579 0 l 0 0 l 0 116 l 231 116 l 231 694 l 0 694 l 0 810 l 247 810 z "},"Í":{"ha":694,"x_min":0,"x_max":579,"o":"m 333 810 l 579 810 l 579 694 l 347 694 l 347 116 l 579 116 l 579 0 l 0 0 l 0 116 l 231 116 l 231 694 l 0 694 l 0 810 l 260 810 l 218 854 l 405 1042 l 485 962 l 333 810 z "},"Î":{"ha":694,"x_min":0,"x_max":579,"o":"m 579 0 l 0 0 l 0 116 l 231 116 l 231 694 l 0 694 l 0 810 l 144 810 q 101 853 133 822 l 289 1042 l 477 853 l 434 810 l 579 810 l 579 694 l 347 694 l 347 116 l 579 116 l 579 0 m 361 810 q 289 882 343 830 l 216 810 l 361 810 z "},"Ï":{"ha":694,"x_min":0,"x_max":579,"o":"m 463 984 q 446 943 463 959 q 405 926 429 926 q 364 943 381 926 q 347 984 347 959 q 364 1025 347 1008 q 405 1042 381 1042 q 446 1025 429 1042 q 463 984 463 1008 m 231 984 q 215 943 231 959 q 174 926 198 926 q 133 943 149 926 q 116 984 116 959 q 133 1025 116 1008 q 174 1042 149 1042 q 215 1025 198 1042 q 231 984 231 1008 m 579 0 l 0 0 l 0 116 l 231 116 l 231 694 l 0 694 l 0 810 l 579 810 l 579 694 l 347 694 l 347 116 l 579 116 l 579 0 z "},"Ð":{"ha":694,"x_min":0,"x_max":579,"o":"m 579 231 q 510 68 579 137 q 347 0 442 0 l 116 0 l 116 347 l 0 347 l 0 463 l 116 463 l 116 810 l 347 810 q 510 742 442 810 q 579 579 579 674 l 579 231 m 463 231 l 463 579 q 429 660 463 626 q 347 694 395 694 l 231 694 l 231 463 l 347 463 l 347 347 l 231 347 l 231 116 l 347 116 q 429 150 395 116 q 463 231 463 184 z "},"Ñ":{"ha":694,"x_min":0,"x_max":579,"o":"m 579 995 q 528 873 579 924 q 405 822 477 822 q 289 866 333 822 q 174 938 218 938 q 133 921 149 938 q 116 880 116 904 l 116 822 l 0 822 l 0 880 q 51 1002 0 951 q 174 1053 102 1053 q 289 1010 247 1053 q 405 938 362 938 q 446 954 429 938 q 463 995 463 971 l 463 1053 l 579 1053 l 579 995 m 579 12 l 463 12 l 463 279 l 116 626 l 116 12 l 0 12 l 0 816 l 80 816 l 463 439 l 463 816 l 579 816 l 579 12 z "},"Ò":{"ha":694,"x_min":0,"x_max":579,"o":"m 318 810 l 347 810 q 511 742 443 810 q 579 579 579 675 l 579 231 q 511 68 579 135 q 347 0 443 0 l 231 0 q 68 68 135 0 q 0 231 0 135 l 0 579 q 68 742 0 675 q 231 810 135 810 l 247 810 l 94 962 l 174 1042 l 362 854 l 318 810 m 347 694 l 231 694 q 150 660 184 694 q 116 579 116 626 l 116 231 q 150 150 116 184 q 231 116 184 116 l 347 116 q 429 150 395 116 q 463 231 463 184 l 463 579 q 429 660 463 626 q 347 694 395 694 z "},"Ó":{"ha":694,"x_min":0,"x_max":579,"o":"m 218 854 l 405 1042 l 485 962 l 333 810 l 347 810 q 511 742 443 810 q 579 579 579 675 l 579 231 q 511 68 579 135 q 347 0 443 0 l 231 0 q 68 68 135 0 q 0 231 0 135 l 0 579 q 68 742 0 675 q 231 810 135 810 l 260 810 l 218 854 m 347 694 l 231 694 q 150 660 184 694 q 116 579 116 626 l 116 231 q 150 150 116 184 q 231 116 184 116 l 347 116 q 429 150 395 116 q 463 231 463 184 l 463 579 q 429 660 463 626 q 347 694 395 694 z "},"Ô":{"ha":694,"x_min":0,"x_max":579,"o":"m 579 231 q 510 68 579 137 q 347 0 442 0 l 231 0 q 68 68 137 0 q 0 231 0 137 l 0 579 q 44 713 0 653 q 156 797 88 773 l 101 853 l 289 1042 l 477 853 l 421 797 q 535 714 491 774 q 579 579 579 654 l 579 231 m 362 810 l 289 882 l 216 810 l 362 810 m 463 231 l 463 579 q 429 660 463 626 q 347 694 395 694 l 231 694 q 150 660 184 694 q 116 579 116 626 l 116 231 q 150 150 116 184 q 231 116 184 116 l 347 116 q 429 150 395 116 q 463 231 463 184 z "},"Õ":{"ha":694,"x_min":0,"x_max":579,"o":"m 579 984 q 528 861 579 912 q 405 810 477 810 q 289 854 333 810 q 174 926 218 926 q 133 909 149 926 q 116 868 116 892 l 116 810 l 0 810 l 0 868 q 51 991 0 940 q 174 1042 102 1042 q 289 999 247 1042 q 405 926 362 926 q 446 943 429 926 q 463 984 463 959 l 463 1042 l 579 1042 l 579 984 m 579 231 q 510 68 579 137 q 347 0 442 0 l 231 0 q 68 68 137 0 q 0 231 0 137 l 0 579 q 68 742 0 674 q 231 810 137 810 l 347 810 q 510 742 442 810 q 579 579 579 674 l 579 231 m 463 231 l 463 579 q 429 660 463 626 q 347 694 395 694 l 231 694 q 150 660 184 694 q 116 579 116 626 l 116 231 q 150 150 116 184 q 231 116 184 116 l 347 116 q 429 150 395 116 q 463 231 463 184 z "},"Ö":{"ha":694,"x_min":0,"x_max":579,"o":"m 463 984 q 446 943 463 959 q 405 926 429 926 q 364 943 381 926 q 347 984 347 959 q 364 1025 347 1008 q 405 1042 381 1042 q 446 1025 429 1042 q 463 984 463 1008 m 231 984 q 215 943 231 959 q 174 926 198 926 q 133 943 149 926 q 116 984 116 959 q 133 1025 116 1008 q 174 1042 149 1042 q 215 1025 198 1042 q 231 984 231 1008 m 579 231 q 510 68 579 137 q 347 0 442 0 l 231 0 q 68 68 137 0 q 0 231 0 137 l 0 579 q 68 742 0 674 q 231 810 137 810 l 347 810 q 510 742 442 810 q 579 579 579 674 l 579 231 m 463 231 l 463 579 q 429 660 463 626 q 347 694 395 694 l 231 694 q 150 660 184 694 q 116 579 116 626 l 116 231 q 150 150 116 184 q 231 116 184 116 l 347 116 q 429 150 395 116 q 463 231 463 184 z "},"×":{"ha":694,"x_min":3,"x_max":575,"o":"m 575 200 l 494 119 l 289 324 l 84 119 l 3 200 l 208 405 l 3 610 l 84 691 l 289 486 l 494 691 l 575 610 l 370 405 l 575 200 z "},"Ø":{"ha":694,"x_min":0,"x_max":579,"o":"m 579 231 q 510 68 579 137 q 347 0 442 0 l 231 0 q 68 68 137 0 q 0 231 0 137 l 0 579 q 68 742 0 674 q 231 810 137 810 l 347 810 q 510 742 442 810 q 579 579 579 674 l 579 231 m 446 641 q 347 694 411 694 l 231 694 q 150 660 184 694 q 116 579 116 626 l 116 311 l 446 641 m 463 231 l 463 497 l 135 169 q 231 116 170 116 l 347 116 q 429 150 395 116 q 463 231 463 184 z "},"Ù":{"ha":694,"x_min":0,"x_max":579,"o":"m 361 853 l 282 774 l 94 962 l 174 1042 l 361 853 m 579 231 q 510 68 579 135 q 347 0 442 0 l 231 0 q 68 68 137 0 q 0 231 0 135 l 0 810 l 116 810 l 116 231 q 150 150 116 184 q 231 116 184 116 l 347 116 q 429 150 395 116 q 463 231 463 184 l 463 810 l 579 810 l 579 231 z "},"Ú":{"ha":694,"x_min":0,"x_max":579,"o":"m 485 962 l 296 774 l 216 853 l 405 1042 l 485 962 m 579 231 q 510 68 579 135 q 347 0 442 0 l 231 0 q 68 68 137 0 q 0 231 0 135 l 0 810 l 116 810 l 116 231 q 150 150 116 184 q 231 116 184 116 l 347 116 q 429 150 395 116 q 463 231 463 184 l 463 810 l 579 810 l 579 231 z "},"Û":{"ha":694,"x_min":0,"x_max":579,"o":"m 477 853 l 398 774 l 289 882 l 181 774 l 101 853 l 289 1042 l 477 853 m 579 231 q 510 68 579 135 q 347 0 442 0 l 231 0 q 68 68 137 0 q 0 231 0 135 l 0 810 l 116 810 l 116 231 q 150 150 116 184 q 231 116 184 116 l 347 116 q 429 150 395 116 q 463 231 463 184 l 463 810 l 579 810 l 579 231 z "},"Ü":{"ha":694,"x_min":0,"x_max":579,"o":"m 463 984 q 446 943 463 959 q 405 926 429 926 q 364 943 381 926 q 347 984 347 959 q 364 1025 347 1008 q 405 1042 381 1042 q 446 1025 429 1042 q 463 984 463 1008 m 231 984 q 215 943 231 959 q 174 926 198 926 q 133 943 149 926 q 116 984 116 959 q 133 1025 116 1008 q 174 1042 149 1042 q 215 1025 198 1042 q 231 984 231 1008 m 579 231 q 510 68 579 135 q 347 0 442 0 l 231 0 q 68 68 137 0 q 0 231 0 135 l 0 810 l 116 810 l 116 231 q 150 150 116 184 q 231 116 184 116 l 347 116 q 429 150 395 116 q 463 231 463 184 l 463 810 l 579 810 l 579 231 z "},"Ý":{"ha":694,"x_min":0,"x_max":579,"o":"m 485 962 l 296 774 l 216 853 l 405 1042 l 485 962 m 579 499 l 347 267 l 347 0 l 231 0 l 231 267 l 0 499 l 0 810 l 116 810 l 116 543 l 289 369 l 463 543 l 463 810 l 579 810 l 579 499 z "},"Þ":{"ha":694,"x_min":0,"x_max":579,"o":"m 579 463 q 510 300 579 368 q 347 231 442 231 l 116 231 l 116 0 l 0 0 l 0 810 l 116 810 l 116 694 l 347 694 q 511 627 443 694 q 579 463 579 559 m 463 463 q 429 545 463 510 q 347 579 395 579 l 116 579 l 116 347 l 347 347 q 429 381 395 347 q 463 463 463 416 z "},"ß":{"ha":694,"x_min":0,"x_max":579,"o":"m 579 231 q 510 68 579 135 q 347 0 442 0 l 231 0 l 231 116 l 347 116 q 429 150 395 116 q 463 231 463 184 q 405 334 463 300 q 347 434 347 368 l 347 492 q 377 569 347 539 q 433 618 405 594 q 463 694 463 648 q 429 776 463 742 q 347 810 395 810 q 302 801 321 810 l 148 648 q 116 568 116 616 l 116 -115 l 0 -115 l 0 586 q 47 706 0 659 l 267 926 l 347 926 q 511 858 443 926 q 579 694 579 791 q 486 509 579 579 q 463 463 463 492 q 484 419 463 435 q 579 231 579 345 z "},"à":{"ha":694,"x_min":0,"x_max":579,"o":"m 477 759 l 398 681 l 209 868 l 289 948 l 477 759 m 579 579 l 579 0 l 463 0 l 463 160 l 391 87 q 231 0 304 0 q 68 68 135 0 q 0 231 0 135 l 0 347 q 68 511 0 443 q 231 579 135 579 l 579 579 m 231 463 q 150 429 184 463 q 116 347 116 395 l 116 231 q 150 150 116 184 q 231 116 184 116 q 347 174 289 116 l 463 289 l 463 463 l 231 463 z "},"á":{"ha":694,"x_min":0,"x_max":579,"o":"m 485 868 l 296 681 l 216 759 l 405 948 l 485 868 m 579 579 l 579 0 l 463 0 l 463 160 l 391 87 q 231 0 304 0 q 68 68 135 0 q 0 231 0 135 l 0 347 q 68 511 0 443 q 231 579 135 579 l 579 579 m 231 463 q 150 429 184 463 q 116 347 116 395 l 116 231 q 150 150 116 184 q 231 116 184 116 q 347 174 289 116 l 463 289 l 463 463 l 231 463 z "},"â":{"ha":694,"x_min":0,"x_max":579,"o":"m 477 759 l 398 681 l 289 788 l 181 681 l 101 759 l 289 948 l 477 759 m 579 579 l 579 0 l 463 0 l 463 160 l 391 87 q 231 0 304 0 q 68 68 135 0 q 0 231 0 135 l 0 347 q 68 511 0 443 q 231 579 135 579 l 579 579 m 231 463 q 150 429 184 463 q 116 347 116 395 l 116 231 q 150 150 116 184 q 231 116 184 116 q 347 174 289 116 l 463 289 l 463 463 l 231 463 z "},"ã":{"ha":694,"x_min":0,"x_max":579,"o":"m 579 868 q 528 745 579 796 q 405 694 477 694 q 289 738 333 694 q 174 810 218 810 q 133 793 149 810 q 116 752 116 777 l 116 694 l 0 694 l 0 752 q 51 875 0 824 q 174 926 102 926 q 289 883 247 926 q 405 810 362 810 q 446 827 429 810 q 463 868 463 844 l 463 926 l 579 926 l 579 868 m 579 579 l 579 0 l 463 0 l 463 160 l 391 87 q 231 0 304 0 q 68 68 135 0 q 0 231 0 135 l 0 347 q 68 511 0 443 q 231 579 135 579 l 579 579 m 231 463 q 150 429 184 463 q 116 347 116 395 l 116 231 q 150 150 116 184 q 231 116 184 116 q 347 174 289 116 l 463 289 l 463 463 l 231 463 z "},"ä":{"ha":694,"x_min":0,"x_max":579,"o":"m 463 752 q 446 711 463 728 q 405 694 429 694 q 364 711 381 694 q 347 752 347 728 q 364 793 347 777 q 405 810 381 810 q 446 793 429 810 q 463 752 463 777 m 231 752 q 215 711 231 728 q 174 694 198 694 q 133 711 149 694 q 116 752 116 728 q 133 793 116 777 q 174 810 149 810 q 215 793 198 810 q 231 752 231 777 m 579 579 l 579 0 l 463 0 l 463 160 l 391 87 q 231 0 304 0 q 68 68 135 0 q 0 231 0 135 l 0 347 q 68 511 0 443 q 231 579 135 579 l 579 579 m 231 463 q 150 429 184 463 q 116 347 116 395 l 116 231 q 150 150 116 184 q 231 116 184 116 q 347 174 289 116 l 463 289 l 463 463 l 231 463 z "},"å":{"ha":694,"x_min":0,"x_max":579,"o":"m 289 579 q 167 630 218 579 q 116 752 116 681 q 167 875 116 824 q 289 926 218 926 q 412 875 361 926 q 463 752 463 824 q 412 630 463 681 q 289 579 361 579 l 579 579 l 579 0 l 463 0 l 463 160 l 391 87 q 231 0 304 0 q 68 68 135 0 q 0 231 0 135 l 0 347 q 68 511 0 443 q 231 579 135 579 l 289 579 m 231 752 q 248 711 231 728 q 289 694 265 694 q 330 711 314 694 q 347 752 347 728 q 330 793 347 777 q 289 810 314 810 q 248 793 265 810 q 231 752 231 777 m 231 463 q 150 429 184 463 q 116 347 116 395 l 116 231 q 150 150 116 184 q 231 116 184 116 q 347 174 289 116 l 463 289 l 463 463 l 231 463 z "},"æ":{"ha":694,"x_min":0,"x_max":579,"o":"m 579 0 l 231 0 q 68 68 137 0 q 0 231 0 137 l 0 347 q 68 510 0 442 q 231 579 137 579 l 347 579 q 510 510 442 579 q 579 347 579 442 l 579 231 l 347 231 l 347 116 l 579 116 l 579 0 m 463 347 q 429 429 463 395 q 347 463 395 463 l 347 347 l 463 347 m 231 116 l 231 463 q 150 429 184 463 q 116 347 116 395 l 116 231 q 150 150 116 184 q 231 116 184 116 z "},"ç":{"ha":694,"x_min":0,"x_max":579,"o":"m 579 0 l 325 0 l 369 -42 l 181 -230 l 101 -150 l 253 0 l 231 0 q 68 68 135 0 q 0 231 0 137 l 0 347 q 68 510 0 442 q 231 579 137 579 l 347 579 q 510 510 442 579 q 579 347 579 442 l 463 347 q 429 429 463 395 q 347 463 395 463 l 231 463 q 150 429 184 463 q 116 347 116 395 l 116 231 q 150 150 116 184 q 231 116 184 116 l 579 116 l 579 0 m 325 0 l 253 0 l 325 0 z "},"è":{"ha":694,"x_min":0,"x_max":579,"o":"m 361 759 l 282 681 l 94 868 l 174 948 l 361 759 m 579 0 l 231 0 q 68 68 137 0 q 0 231 0 137 l 0 347 q 68 510 0 442 q 231 579 137 579 l 347 579 q 510 510 442 579 q 579 347 579 442 l 579 231 l 116 231 q 150 150 116 184 q 231 116 184 116 l 579 116 l 579 0 m 463 347 q 429 429 463 395 q 347 463 395 463 l 231 463 q 150 429 184 463 q 116 347 116 395 l 463 347 z "},"é":{"ha":694,"x_min":0,"x_max":579,"o":"m 485 868 l 296 681 l 216 759 l 405 948 l 485 868 m 579 0 l 231 0 q 68 68 137 0 q 0 231 0 137 l 0 347 q 68 510 0 442 q 231 579 137 579 l 347 579 q 510 510 442 579 q 579 347 579 442 l 579 231 l 116 231 q 150 150 116 184 q 231 116 184 116 l 579 116 l 579 0 m 463 347 q 429 429 463 395 q 347 463 395 463 l 231 463 q 150 429 184 463 q 116 347 116 395 l 463 347 z "},"ê":{"ha":694,"x_min":0,"x_max":579,"o":"m 477 759 l 398 681 l 289 788 l 181 681 l 101 759 l 289 948 l 477 759 m 579 0 l 231 0 q 68 68 137 0 q 0 231 0 137 l 0 347 q 68 510 0 442 q 231 579 137 579 l 347 579 q 510 510 442 579 q 579 347 579 442 l 579 231 l 116 231 q 150 150 116 184 q 231 116 184 116 l 579 116 l 579 0 m 463 347 q 429 429 463 395 q 347 463 395 463 l 231 463 q 150 429 184 463 q 116 347 116 395 l 463 347 z "},"ë":{"ha":694,"x_min":0,"x_max":579,"o":"m 463 752 q 446 711 463 728 q 405 694 429 694 q 364 711 381 694 q 347 752 347 728 q 364 793 347 777 q 405 810 381 810 q 446 793 429 810 q 463 752 463 777 m 231 752 q 215 711 231 728 q 174 694 198 694 q 133 711 149 694 q 116 752 116 728 q 133 793 116 777 q 174 810 149 810 q 215 793 198 810 q 231 752 231 777 m 579 0 l 231 0 q 68 68 137 0 q 0 231 0 137 l 0 347 q 68 510 0 442 q 231 579 137 579 l 347 579 q 510 510 442 579 q 579 347 579 442 l 579 231 l 116 231 q 150 150 116 184 q 231 116 184 116 l 579 116 l 579 0 m 463 347 q 429 429 463 395 q 347 463 395 463 l 231 463 q 150 429 184 463 q 116 347 116 395 l 463 347 z "},"ì":{"ha":694,"x_min":94,"x_max":463,"o":"m 361 759 l 282 681 l 94 868 l 174 948 l 361 759 m 463 0 l 116 0 l 116 116 l 231 116 l 231 463 l 116 463 l 116 579 l 347 579 l 347 116 l 463 116 l 463 0 z "},"í":{"ha":694,"x_min":116,"x_max":485,"o":"m 485 868 l 296 681 l 216 759 l 405 948 l 485 868 m 463 0 l 116 0 l 116 116 l 231 116 l 231 463 l 116 463 l 116 579 l 347 579 l 347 116 l 463 116 l 463 0 z "},"î":{"ha":694,"x_min":101,"x_max":477,"o":"m 477 759 l 398 681 l 289 788 l 181 681 l 101 759 l 289 948 l 477 759 m 463 0 l 116 0 l 116 116 l 231 116 l 231 463 l 116 463 l 116 579 l 347 579 l 347 116 l 463 116 l 463 0 z "},"ï":{"ha":694,"x_min":116,"x_max":463,"o":"m 463 752 q 446 711 463 728 q 405 694 429 694 q 364 711 381 694 q 347 752 347 728 q 364 793 347 777 q 405 810 381 810 q 446 793 429 810 q 463 752 463 777 m 231 752 q 215 711 231 728 q 174 694 198 694 q 133 711 149 694 q 116 752 116 728 q 133 793 116 777 q 174 810 149 810 q 215 793 198 810 q 231 752 231 777 m 463 0 l 116 0 l 116 116 l 231 116 l 231 463 l 116 463 l 116 579 l 347 579 l 347 116 l 463 116 l 463 0 z "},"ð":{"ha":694,"x_min":0,"x_max":579,"o":"m 579 231 q 511 68 579 135 q 347 0 443 0 l 231 0 q 68 68 137 0 q 0 231 0 137 l 0 347 q 68 510 0 442 q 231 579 137 579 l 347 579 q 384 575 365 579 l 231 728 l 160 656 l 78 738 l 149 810 l 78 882 l 160 964 l 231 892 l 303 964 l 385 882 l 314 810 l 513 610 q 579 449 579 544 l 579 231 m 463 231 l 463 347 q 429 429 463 395 q 347 463 395 463 l 231 463 q 150 429 184 463 q 116 347 116 395 l 116 231 q 150 150 116 184 q 231 116 184 116 l 347 116 q 429 150 395 116 q 463 231 463 184 z "},"ñ":{"ha":694,"x_min":0,"x_max":579,"o":"m 579 868 q 528 745 579 796 q 405 694 477 694 q 289 738 333 694 q 174 810 218 810 q 133 793 149 810 q 116 752 116 777 l 116 694 l 0 694 l 0 752 q 51 875 0 824 q 174 926 102 926 q 289 883 247 926 q 405 810 362 810 q 446 827 429 810 q 463 868 463 844 l 463 926 l 579 926 l 579 868 m 116 579 l 116 420 l 189 492 q 347 579 275 579 q 511 511 443 579 q 579 347 579 443 l 579 0 l 463 0 l 463 347 q 429 429 463 395 q 347 463 395 463 q 231 405 289 463 l 116 289 l 116 0 l 0 0 l 0 579 l 116 579 z "},"ò":{"ha":694,"x_min":0,"x_max":579,"o":"m 361 759 l 282 681 l 94 868 l 174 948 l 361 759 m 579 231 q 510 68 579 137 q 347 0 442 0 l 231 0 q 68 68 137 0 q 0 231 0 137 l 0 347 q 68 510 0 442 q 231 579 137 579 l 347 579 q 510 510 442 579 q 579 347 579 442 l 579 231 m 463 231 l 463 347 q 429 429 463 395 q 347 463 395 463 l 231 463 q 150 429 184 463 q 116 347 116 395 l 116 231 q 150 150 116 184 q 231 116 184 116 l 347 116 q 429 150 395 116 q 463 231 463 184 z "},"ó":{"ha":694,"x_min":0,"x_max":579,"o":"m 485 868 l 296 681 l 216 759 l 405 948 l 485 868 m 579 231 q 510 68 579 137 q 347 0 442 0 l 231 0 q 68 68 137 0 q 0 231 0 137 l 0 347 q 68 510 0 442 q 231 579 137 579 l 347 579 q 510 510 442 579 q 579 347 579 442 l 579 231 m 463 231 l 463 347 q 429 429 463 395 q 347 463 395 463 l 231 463 q 150 429 184 463 q 116 347 116 395 l 116 231 q 150 150 116 184 q 231 116 184 116 l 347 116 q 429 150 395 116 q 463 231 463 184 z "},"ô":{"ha":694,"x_min":0,"x_max":579,"o":"m 477 759 l 398 681 l 289 788 l 181 681 l 101 759 l 289 948 l 477 759 m 579 231 q 510 68 579 137 q 347 0 442 0 l 231 0 q 68 68 137 0 q 0 231 0 137 l 0 347 q 68 510 0 442 q 231 579 137 579 l 347 579 q 510 510 442 579 q 579 347 579 442 l 579 231 m 463 231 l 463 347 q 429 429 463 395 q 347 463 395 463 l 231 463 q 150 429 184 463 q 116 347 116 395 l 116 231 q 150 150 116 184 q 231 116 184 116 l 347 116 q 429 150 395 116 q 463 231 463 184 z "},"õ":{"ha":694,"x_min":0,"x_max":579,"o":"m 579 868 q 528 745 579 796 q 405 694 477 694 q 289 738 333 694 q 174 810 218 810 q 133 793 149 810 q 116 752 116 777 l 116 694 l 0 694 l 0 752 q 51 875 0 824 q 174 926 102 926 q 289 883 247 926 q 405 810 362 810 q 446 827 429 810 q 463 868 463 844 l 463 926 l 579 926 l 579 868 m 579 231 q 510 68 579 137 q 347 0 442 0 l 231 0 q 68 68 137 0 q 0 231 0 137 l 0 347 q 68 510 0 442 q 231 579 137 579 l 347 579 q 510 510 442 579 q 579 347 579 442 l 579 231 m 463 231 l 463 347 q 429 429 463 395 q 347 463 395 463 l 231 463 q 150 429 184 463 q 116 347 116 395 l 116 231 q 150 150 116 184 q 231 116 184 116 l 347 116 q 429 150 395 116 q 463 231 463 184 z "},"ö":{"ha":694,"x_min":0,"x_max":579,"o":"m 463 752 q 446 711 463 728 q 405 694 429 694 q 364 711 381 694 q 347 752 347 728 q 364 793 347 777 q 405 810 381 810 q 446 793 429 810 q 463 752 463 777 m 231 752 q 215 711 231 728 q 174 694 198 694 q 133 711 149 694 q 116 752 116 728 q 133 793 116 777 q 174 810 149 810 q 215 793 198 810 q 231 752 231 777 m 579 231 q 510 68 579 137 q 347 0 442 0 l 231 0 q 68 68 137 0 q 0 231 0 137 l 0 347 q 68 510 0 442 q 231 579 137 579 l 347 579 q 510 510 442 579 q 579 347 579 442 l 579 231 m 463 231 l 463 347 q 429 429 463 395 q 347 463 395 463 l 231 463 q 150 429 184 463 q 116 347 116 395 l 116 231 q 150 150 116 184 q 231 116 184 116 l 347 116 q 429 150 395 116 q 463 231 463 184 z "},"÷":{"ha":694,"x_min":0,"x_max":579,"o":"m 347 637 q 330 595 347 612 q 289 579 314 579 q 248 595 265 579 q 231 637 231 612 q 248 678 231 661 q 289 694 265 694 q 330 678 314 694 q 347 637 347 661 m 579 347 l 0 347 l 0 463 l 579 463 l 579 347 m 347 174 q 330 133 347 149 q 289 116 314 116 q 248 133 265 116 q 231 174 231 149 q 248 215 231 198 q 289 231 265 231 q 330 215 314 231 q 347 174 347 198 z "},"ø":{"ha":694,"x_min":0,"x_max":579,"o":"m 579 231 q 510 68 579 137 q 347 0 442 0 l 231 0 q 68 68 137 0 q 0 231 0 137 l 0 347 q 68 510 0 442 q 231 579 137 579 l 347 579 q 510 510 442 579 q 579 347 579 442 l 579 231 m 377 458 q 347 463 359 463 l 231 463 q 150 429 184 463 q 116 347 116 395 l 116 231 q 122 204 116 227 l 377 458 m 463 231 l 463 347 q 459 377 463 362 l 203 120 q 231 116 221 116 l 347 116 q 429 150 395 116 q 463 231 463 184 z "},"ù":{"ha":694,"x_min":0,"x_max":579,"o":"m 361 759 l 282 681 l 94 868 l 174 948 l 361 759 m 463 0 l 463 160 l 391 87 q 231 0 304 0 q 68 68 135 0 q 0 231 0 135 l 0 579 l 116 579 l 116 231 q 150 150 116 184 q 231 116 184 116 q 347 174 289 116 l 463 289 l 463 579 l 579 579 l 579 0 l 463 0 z "},"ú":{"ha":694,"x_min":0,"x_max":579,"o":"m 485 868 l 296 681 l 216 759 l 405 948 l 485 868 m 463 0 l 463 160 l 391 87 q 231 0 304 0 q 68 68 135 0 q 0 231 0 135 l 0 579 l 116 579 l 116 231 q 150 150 116 184 q 231 116 184 116 q 347 174 289 116 l 463 289 l 463 579 l 579 579 l 579 0 l 463 0 z "},"û":{"ha":694,"x_min":0,"x_max":579,"o":"m 477 752 l 398 672 l 289 781 l 181 672 l 101 752 l 289 941 l 477 752 m 463 0 l 463 160 l 391 87 q 231 0 304 0 q 68 68 135 0 q 0 231 0 135 l 0 579 l 116 579 l 116 231 q 150 150 116 184 q 231 116 184 116 q 347 174 289 116 l 463 289 l 463 579 l 579 579 l 579 0 l 463 0 z "},"ü":{"ha":694,"x_min":0,"x_max":579,"o":"m 463 752 q 446 711 463 728 q 405 694 429 694 q 364 711 381 694 q 347 752 347 728 q 364 793 347 777 q 405 810 381 810 q 446 793 429 810 q 463 752 463 777 m 231 752 q 215 711 231 728 q 174 694 198 694 q 133 711 149 694 q 116 752 116 728 q 133 793 116 777 q 174 810 149 810 q 215 793 198 810 q 231 752 231 777 m 463 0 l 463 160 l 391 87 q 231 0 304 0 q 68 68 135 0 q 0 231 0 135 l 0 579 l 116 579 l 116 231 q 150 150 116 184 q 231 116 184 116 q 347 174 289 116 l 463 289 l 463 579 l 579 579 l 579 0 l 463 0 z "},"ý":{"ha":694,"x_min":0,"x_max":579,"o":"m 485 868 l 296 681 l 216 759 l 405 948 l 485 868 m 579 0 q 510 -163 579 -95 q 347 -230 442 -230 l 116 -230 l 116 -115 l 347 -115 q 429 -80 395 -115 q 463 0 463 -46 l 231 0 q 68 68 137 0 q 0 231 0 137 l 0 579 l 116 579 l 116 231 q 150 150 116 184 q 231 116 184 116 l 463 116 l 463 579 l 579 579 l 579 0 z "},"þ":{"ha":694,"x_min":0,"x_max":579,"o":"m 579 231 q 510 68 579 137 q 347 0 442 0 l 116 0 l 116 -230 l 0 -230 l 0 810 l 116 810 l 116 579 l 347 579 q 510 510 442 579 q 579 347 579 442 l 579 231 m 463 231 l 463 347 q 429 429 463 395 q 347 463 395 463 l 116 463 l 116 116 l 347 116 q 429 150 395 116 q 463 231 463 184 z "},"ÿ":{"ha":694,"x_min":0,"x_max":579,"o":"m 463 752 q 446 711 463 728 q 405 694 429 694 q 364 711 381 694 q 347 752 347 728 q 364 793 347 777 q 405 810 381 810 q 446 793 429 810 q 463 752 463 777 m 231 752 q 215 711 231 728 q 174 694 198 694 q 133 711 149 694 q 116 752 116 728 q 133 793 116 777 q 174 810 149 810 q 215 793 198 810 q 231 752 231 777 m 579 0 q 510 -163 579 -95 q 347 -230 442 -230 l 116 -230 l 116 -115 l 347 -115 q 429 -80 395 -115 q 463 0 463 -46 l 231 0 q 68 68 137 0 q 0 231 0 137 l 0 579 l 116 579 l 116 231 q 150 150 116 184 q 231 116 184 116 l 463 116 l 463 579 l 579 579 l 579 0 z "},"ı":{"ha":694,"x_min":116,"x_max":463,"o":"m 463 0 l 116 0 l 116 116 l 231 116 l 231 463 l 116 463 l 116 579 l 347 579 l 347 116 l 463 116 l 463 0 z "},"Œ":{"ha":694,"x_min":0,"x_max":579,"o":"m 579 0 l 231 0 q 68 68 137 0 q 0 231 0 137 l 0 579 q 68 742 0 674 q 231 810 137 810 l 579 810 l 579 694 l 347 694 l 347 463 l 463 463 l 463 347 l 347 347 l 347 116 l 579 116 l 579 0 m 231 116 l 231 694 q 150 660 184 694 q 116 579 116 626 l 116 231 q 150 150 116 184 q 231 116 184 116 z "},"œ":{"ha":694,"x_min":0,"x_max":579,"o":"m 579 0 l 405 0 q 292 46 341 0 q 174 0 243 0 q 51 51 102 0 q 0 174 0 102 l 0 405 q 51 528 0 477 q 174 579 102 579 q 293 531 242 579 q 405 579 343 579 q 528 528 477 579 q 579 405 579 477 l 579 231 l 405 231 q 364 215 381 231 q 347 174 347 198 q 364 133 347 149 q 405 116 381 116 l 579 116 l 579 0 m 463 405 q 446 446 463 429 q 405 463 429 463 q 364 446 381 463 q 347 405 347 429 q 364 364 347 381 q 405 347 381 347 q 446 364 429 347 q 463 405 463 381 m 231 174 l 231 405 q 215 446 231 429 q 174 463 198 463 q 133 446 149 463 q 116 405 116 429 l 116 174 q 133 133 116 149 q 174 116 149 116 q 215 133 198 116 q 231 174 231 149 z "},"Š":{"ha":694,"x_min":0,"x_max":579,"o":"m 231 810 l 253 810 q 102 962 212 852 l 181 1042 l 289 933 l 398 1042 l 478 962 l 325 810 l 347 810 q 511 742 443 810 q 579 579 579 675 l 463 579 q 429 660 463 626 q 347 694 395 694 l 231 694 q 150 660 184 694 q 116 579 116 626 q 150 497 116 531 q 231 463 184 463 l 347 463 q 511 395 443 463 q 579 231 579 328 q 511 68 579 135 q 347 0 443 0 l 231 0 q 68 68 135 0 q 0 231 0 135 l 116 231 q 150 150 116 184 q 231 116 184 116 l 347 116 q 429 150 395 116 q 463 231 463 184 q 429 313 463 279 q 347 347 395 347 l 231 347 q 68 415 135 347 q 0 579 0 483 q 68 742 0 675 q 231 810 135 810 z "},"š":{"ha":694,"x_min":0,"x_max":579,"o":"m 475 869 l 287 681 l 98 869 l 178 948 l 287 840 l 396 948 l 475 869 m 579 579 l 579 463 l 275 463 q 173 446 215 463 q 131 405 131 429 q 173 364 131 381 q 275 347 215 347 l 304 347 q 488 296 412 347 q 565 174 565 245 q 488 51 565 102 q 304 0 412 0 l 0 0 l 0 116 l 304 116 q 406 133 363 116 q 449 174 449 149 q 406 215 449 198 q 304 231 363 231 l 275 231 q 91 282 167 231 q 15 405 15 333 q 91 528 15 477 q 275 579 167 579 l 579 579 z "},"Ÿ":{"ha":694,"x_min":0,"x_max":579,"o":"m 463 984 q 446 943 463 959 q 405 926 429 926 q 364 943 381 926 q 347 984 347 959 q 364 1025 347 1008 q 405 1042 381 1042 q 446 1025 429 1042 q 463 984 463 1008 m 231 984 q 215 943 231 959 q 174 926 198 926 q 133 943 149 926 q 116 984 116 959 q 133 1025 116 1008 q 174 1042 149 1042 q 215 1025 198 1042 q 231 984 231 1008 m 579 499 l 347 267 l 347 0 l 231 0 l 231 267 l 0 499 l 0 810 l 116 810 l 116 543 l 289 369 l 463 543 l 463 810 l 579 810 l 579 499 z "},"Ž":{"ha":694,"x_min":0,"x_max":579,"o":"m 579 116 l 116 116 l 116 160 l 579 623 l 579 810 l 0 810 l 0 694 l 463 694 l 463 669 l 0 207 l 0 0 l 579 0 l 579 116 m 179 1036 l 288 927 l 397 1036 l 476 956 l 331 810 l 245 810 l 100 956 l 179 1036 z "},"ž":{"ha":694,"x_min":0,"x_max":579,"o":"m 579 0 l 0 0 l 0 80 l 383 463 l 0 463 l 0 579 l 579 579 l 579 499 l 196 116 l 579 116 l 579 0 m 104 863 l 183 942 l 292 834 l 400 942 l 480 863 l 292 675 l 104 863 z "},"ƒ":{"ha":694,"x_min":0,"x_max":579,"o":"m 579 926 l 463 926 q 381 892 416 926 q 347 810 347 858 l 347 579 l 463 579 l 463 463 l 347 463 l 347 0 q 279 -162 347 -94 q 116 -230 211 -230 l 0 -230 l 0 -115 l 116 -115 q 197 -80 163 -115 q 231 0 231 -46 l 231 463 l 116 463 l 116 579 l 231 579 l 231 810 q 300 973 231 905 q 463 1042 368 1042 l 579 1042 l 579 926 z "},"ˆ":{"ha":694,"x_min":101,"x_max":477,"o":"m 477 759 l 398 681 l 289 788 l 181 681 l 101 759 l 289 948 l 477 759 z "},"ˇ":{"ha":694,"x_min":98,"x_max":475,"o":"m 475 869 l 287 681 l 98 869 l 178 948 l 287 840 l 396 948 l 475 869 z "},"˘":{"ha":694,"x_min":122,"x_max":584,"o":"m 584 926 q 516 763 584 831 q 353 694 448 694 q 189 762 257 694 q 122 926 122 830 l 237 926 q 271 844 237 878 q 353 810 306 810 q 435 844 400 810 q 469 926 469 878 l 584 926 l 584 926 z "},"˙":{"ha":694,"x_min":237,"x_max":469,"o":"m 469 694 q 435 613 469 647 q 353 579 400 579 q 271 613 306 579 q 237 694 237 647 q 271 776 237 742 q 353 810 306 810 q 435 776 400 810 q 469 694 469 742 z "},"˚":{"ha":694,"x_min":122,"x_max":469,"o":"m 353 752 q 336 793 353 777 q 295 810 319 810 q 254 793 271 810 q 237 752 237 777 q 254 711 237 728 q 295 694 271 694 q 336 711 319 694 q 353 752 353 728 m 469 752 q 418 630 469 681 q 295 579 367 579 q 172 630 223 579 q 122 752 122 681 q 172 875 122 824 q 295 926 223 926 q 418 875 367 926 q 469 752 469 824 z "},"˛":{"ha":694,"x_min":116,"x_max":361,"o":"m 361 -150 l 282 -230 l 116 -64 l 116 116 l 347 116 l 347 0 l 231 0 l 231 -21 l 361 -150 z "},"˜":{"ha":694,"x_min":0,"x_max":579,"o":"m 579 868 q 528 745 579 796 q 405 694 477 694 q 289 738 333 694 q 174 810 218 810 q 133 793 149 810 q 116 752 116 777 l 116 694 l 0 694 l 0 752 q 51 875 0 824 q 174 926 102 926 q 289 883 247 926 q 405 810 362 810 q 446 827 429 810 q 463 868 463 844 l 463 926 l 579 926 l 579 868 z "},"˝":{"ha":694,"x_min":6,"x_max":606,"o":"m 86 681 l 6 759 l 193 948 l 273 868 l 86 681 m 418 681 l 338 759 l 527 948 l 606 868 l 418 681 z "},"–":{"ha":694,"x_min":116,"x_max":463,"o":"m 463 347 l 116 347 l 116 463 l 463 463 l 463 347 z "},"—":{"ha":694,"x_min":0,"x_max":694,"o":"m 694 347 l 0 347 l 0 463 l 694 463 l 694 347 z "},"‗":{"ha":694,"x_min":0,"x_max":694,"o":"m 694 -116 l 0 -116 l 0 0 l 694 0 l 694 -116 m 694 -347 l 0 -347 l 0 -231 l 694 -231 l 694 -347 z "},"‘":{"ha":694,"x_min":231,"x_max":453,"o":"m 453 766 l 382 694 q 347 616 347 660 l 347 463 l 231 463 l 231 617 q 300 777 231 708 l 372 848 l 453 766 z "},"’":{"ha":694,"x_min":242,"x_max":463,"o":"m 463 656 q 395 497 463 565 l 323 425 l 242 507 l 313 579 q 347 657 347 613 l 347 810 l 463 810 l 463 656 z "},"‚":{"ha":694,"x_min":10,"x_max":231,"o":"m 231 78 q 163 -81 231 -13 l 91 -153 l 10 -71 l 81 0 q 116 79 116 35 l 116 231 l 231 231 l 231 78 z "},"“":{"ha":694,"x_min":116,"x_max":568,"o":"m 568 766 l 498 694 q 463 616 463 660 l 463 463 l 347 463 l 347 617 q 416 777 347 708 l 487 848 l 568 766 m 337 766 l 266 694 q 231 616 231 660 l 231 463 l 116 463 l 116 617 q 184 777 116 708 l 256 848 l 337 766 z "},"”":{"ha":694,"x_min":126,"x_max":579,"o":"m 579 656 q 510 497 579 565 l 439 425 l 358 507 l 428 579 q 463 657 463 613 l 463 810 l 579 810 l 579 656 m 347 656 q 279 497 347 565 l 207 425 l 126 507 l 197 579 q 231 657 231 613 l 231 810 l 347 810 l 347 656 z "},"„":{"ha":694,"x_min":10,"x_max":463,"o":"m 463 78 q 395 -81 463 -13 l 323 -153 l 242 -71 l 313 0 q 347 79 347 35 l 347 231 l 463 231 l 463 78 m 231 78 q 163 -81 231 -13 l 91 -153 l 10 -71 l 81 0 q 116 79 116 35 l 116 231 l 231 231 l 231 78 z "},"†":{"ha":694,"x_min":116,"x_max":463,"o":"m 463 579 l 347 579 l 347 231 l 231 231 l 231 579 l 116 579 l 116 694 l 231 694 l 231 810 l 347 810 l 347 694 l 463 694 l 463 579 z "},"‡":{"ha":694,"x_min":116,"x_max":463,"o":"m 463 347 l 347 347 l 347 231 l 231 231 l 231 347 l 116 347 l 116 463 l 231 463 l 231 579 l 116 579 l 116 694 l 231 694 l 231 810 l 347 810 l 347 694 l 463 694 l 463 579 l 347 579 l 347 463 l 463 463 l 463 347 z "},"•":{"ha":694,"x_min":0,"x_max":579,"o":"m 579 405 q 494 200 579 285 q 289 116 410 116 q 84 200 169 116 q 0 405 0 285 q 85 610 0 525 q 289 694 170 694 q 494 610 410 694 q 579 405 579 525 z "},"…":{"ha":694,"x_min":0,"x_max":579,"o":"m 579 58 q 562 17 579 34 q 521 0 545 0 q 480 17 497 0 q 463 58 463 34 q 480 99 463 82 q 521 116 497 116 q 562 99 545 116 q 579 58 579 82 m 347 58 q 330 17 347 34 q 289 0 314 0 q 248 17 265 0 q 231 58 231 34 q 248 99 231 82 q 289 116 265 116 q 330 99 314 116 q 347 58 347 82 m 116 58 q 99 17 116 34 q 58 0 82 0 q 17 17 34 0 q 0 58 0 34 q 17 99 0 82 q 58 116 34 116 q 99 99 82 116 q 116 58 116 82 z "},"‰":{"ha":694,"x_min":6,"x_max":700,"o":"m 700 231 q 649 68 700 135 q 527 0 598 0 q 411 59 462 0 q 295 0 361 0 q 172 68 223 0 q 122 231 122 135 q 124 267 122 256 l 6 149 l 6 314 l 157 465 q 50 542 94 477 q 6 694 6 606 q 57 858 6 791 q 179 926 108 926 l 700 926 l 700 844 l 317 461 q 411 404 370 453 q 527 463 461 463 q 649 395 598 463 q 700 231 700 328 m 502 810 l 330 810 q 353 694 353 758 q 351 659 353 682 l 502 810 m 237 694 q 220 776 237 742 q 179 810 204 810 q 138 776 155 810 q 122 694 122 742 q 138 613 122 647 q 179 579 155 579 q 220 613 204 579 q 237 694 237 647 m 584 231 q 568 313 584 279 q 527 347 551 347 q 486 313 502 347 q 469 231 469 279 q 486 150 469 184 q 527 116 502 116 q 568 150 551 116 q 584 231 584 184 m 353 231 q 336 313 353 279 q 295 347 319 347 q 254 313 271 347 q 237 231 237 279 q 254 150 237 184 q 295 116 271 116 q 336 150 319 116 q 353 231 353 184 z "},"‹":{"ha":694,"x_min":0,"x_max":220,"o":"m 220 10 l 113 -34 l 0 231 l 113 498 l 220 453 l 123 231 l 220 10 z "},"›":{"ha":694,"x_min":12,"x_max":231,"o":"m 231 231 l 118 -34 l 12 10 l 109 231 l 12 453 l 118 498 l 231 231 z "},"€":{"ha":694,"x_min":0,"x_max":579,"o":"m 0 347 l 116 347 l 116 463 l 0 463 l 0 579 l 116 579 q 184 742 116 674 q 347 810 252 810 q 510 742 442 810 q 579 579 579 674 l 463 579 q 429 661 463 627 q 347 694 396 694 q 265 661 299 694 q 231 579 231 627 l 347 579 l 347 463 l 231 463 l 231 347 l 347 347 l 347 231 l 231 231 q 265 149 231 183 q 347 116 299 116 q 429 149 396 116 q 463 231 463 183 l 579 231 q 510 68 579 137 q 347 0 442 0 q 184 68 252 0 q 116 231 116 137 l 0 231 l 0 347 z "},"™":{"ha":694,"x_min":0,"x_max":694,"o":"m 694 463 l 579 463 l 579 637 l 521 521 l 463 637 l 463 463 l 347 463 l 347 694 l 231 694 l 231 463 l 116 463 l 116 694 l 0 694 l 0 810 l 463 810 l 521 694 l 579 810 l 694 810 l 694 463 z "},"⌐":{"ha":694,"x_min":0,"x_max":579,"o":"m 0 463 l 579 463 l 579 347 l 116 347 l 116 116 l 0 116 l 0 463 z "},"─":{"ha":694,"x_min":0,"x_max":694,"o":"m 0 463 l 694 463 l 694 347 l 0 347 l 0 463 z "},"│":{"ha":694,"x_min":231,"x_max":347,"o":"m 231 1042 l 347 1042 l 347 -347 l 231 -347 l 231 1042 z "},"┌":{"ha":694,"x_min":231,"x_max":694,"o":"m 347 -347 l 231 -347 l 231 463 l 694 463 l 694 347 l 347 347 l 347 -347 z "},"┐":{"ha":694,"x_min":0,"x_max":347,"o":"m 0 463 l 347 463 l 347 -347 l 231 -347 l 231 347 l 0 347 l 0 463 z "},"└":{"ha":694,"x_min":231,"x_max":694,"o":"m 231 1042 l 347 1042 l 347 463 l 694 463 l 694 347 l 231 347 l 231 1042 z "},"┘":{"ha":694,"x_min":0,"x_max":347,"o":"m 0 463 l 231 463 l 231 1042 l 347 1042 l 347 347 l 0 347 l 0 463 z "},"├":{"ha":694,"x_min":231,"x_max":694,"o":"m 347 -347 l 231 -347 l 231 1042 l 347 1042 l 347 463 l 694 463 l 694 347 l 347 347 l 347 -347 z "},"┤":{"ha":694,"x_min":0,"x_max":347,"o":"m 0 463 l 231 463 l 231 1042 l 347 1042 l 347 -347 l 231 -347 l 231 347 l 0 347 l 0 463 z "},"┬":{"ha":694,"x_min":0,"x_max":694,"o":"m 0 463 l 694 463 l 694 347 l 347 347 l 347 -347 l 231 -347 l 231 347 l 0 347 l 0 463 z "},"┴":{"ha":694,"x_min":0,"x_max":694,"o":"m 0 463 l 231 463 l 231 1042 l 347 1042 l 347 463 l 694 463 l 694 347 l 0 347 l 0 463 z "},"┼":{"ha":694,"x_min":0,"x_max":694,"o":"m 0 463 l 231 463 l 231 1042 l 347 1042 l 347 463 l 694 463 l 694 347 l 347 347 l 347 -347 l 231 -347 l 231 347 l 0 347 l 0 463 z "},"═":{"ha":694,"x_min":0,"x_max":694,"o":"m 0 347 l 694 347 l 694 231 l 0 231 l 0 347 m 0 579 l 694 579 l 694 463 l 0 463 l 0 579 z "},"║":{"ha":694,"x_min":116,"x_max":463,"o":"m 116 1042 l 231 1042 l 231 -347 l 116 -347 l 116 1042 m 347 1042 l 463 1042 l 463 -347 l 347 -347 l 347 1042 z "},"╒":{"ha":694,"x_min":231,"x_max":694,"o":"m 347 -347 l 231 -347 l 231 579 l 694 579 l 694 463 l 347 463 l 347 347 l 694 347 l 694 231 l 347 231 l 347 -347 z "},"╓":{"ha":694,"x_min":116,"x_max":694,"o":"m 231 -347 l 116 -347 l 116 463 l 694 463 l 694 347 l 463 347 l 463 -347 l 347 -347 l 347 347 l 231 347 l 231 -347 z "},"╔":{"ha":694,"x_min":116,"x_max":694,"o":"m 347 347 l 694 347 l 694 231 l 463 231 l 463 -347 l 347 -347 l 347 347 m 231 -347 l 116 -347 l 116 579 l 694 579 l 694 463 l 231 463 l 231 -347 z "},"╕":{"ha":694,"x_min":0,"x_max":347,"o":"m 0 347 l 231 347 l 231 463 l 0 463 l 0 579 l 347 579 l 347 -347 l 231 -347 l 231 231 l 0 231 l 0 347 z "},"╖":{"ha":694,"x_min":0,"x_max":463,"o":"m 0 463 l 463 463 l 463 -347 l 347 -347 l 347 347 l 231 347 l 231 -347 l 116 -347 l 116 347 l 0 347 l 0 463 z "},"╗":{"ha":694,"x_min":0,"x_max":463,"o":"m 0 347 l 231 347 l 231 -347 l 116 -347 l 116 231 l 0 231 l 0 347 m 0 579 l 463 579 l 463 -347 l 347 -347 l 347 463 l 0 463 l 0 579 z "},"╘":{"ha":694,"x_min":231,"x_max":694,"o":"m 231 1042 l 347 1042 l 347 579 l 694 579 l 694 463 l 347 463 l 347 347 l 694 347 l 694 231 l 231 231 l 231 1042 z "},"╙":{"ha":694,"x_min":116,"x_max":694,"o":"m 116 1042 l 231 1042 l 231 463 l 347 463 l 347 1042 l 463 1042 l 463 463 l 694 463 l 694 347 l 116 347 l 116 1042 z "},"╚":{"ha":694,"x_min":116,"x_max":694,"o":"m 347 1042 l 463 1042 l 463 579 l 694 579 l 694 463 l 347 463 l 347 1042 m 116 1042 l 231 1042 l 231 347 l 694 347 l 694 231 l 116 231 l 116 1042 z "},"╛":{"ha":694,"x_min":0,"x_max":347,"o":"m 0 347 l 231 347 l 231 463 l 0 463 l 0 579 l 231 579 l 231 1042 l 347 1042 l 347 231 l 0 231 l 0 347 z "},"╜":{"ha":694,"x_min":0,"x_max":463,"o":"m 347 1042 l 463 1042 l 463 347 l 0 347 l 0 463 l 116 463 l 116 1042 l 231 1042 l 231 463 l 347 463 l 347 1042 z "},"╝":{"ha":694,"x_min":0,"x_max":463,"o":"m 0 579 l 116 579 l 116 1042 l 231 1042 l 231 463 l 0 463 l 0 579 m 0 347 l 347 347 l 347 1042 l 463 1042 l 463 231 l 0 231 l 0 347 z "},"╞":{"ha":694,"x_min":231,"x_max":694,"o":"m 347 -347 l 231 -347 l 231 1042 l 347 1042 l 347 579 l 694 579 l 694 463 l 347 463 l 347 347 l 694 347 l 694 231 l 347 231 l 347 -347 z "},"╟":{"ha":694,"x_min":116,"x_max":694,"o":"m 116 1042 l 231 1042 l 231 -347 l 116 -347 l 116 1042 m 463 -347 l 347 -347 l 347 1042 l 463 1042 l 463 463 l 694 463 l 694 347 l 463 347 l 463 -347 z "},"╠":{"ha":694,"x_min":116,"x_max":694,"o":"m 347 347 l 694 347 l 694 231 l 347 231 l 347 347 m 347 231 l 463 231 l 463 -347 l 347 -347 l 347 231 m 347 1042 l 463 1042 l 463 579 l 694 579 l 694 463 l 347 463 l 347 1042 m 116 1042 l 231 1042 l 231 -347 l 116 -347 l 116 1042 z "},"╡":{"ha":694,"x_min":0,"x_max":347,"o":"m 0 347 l 231 347 l 231 463 l 0 463 l 0 579 l 231 579 l 231 1042 l 347 1042 l 347 -347 l 231 -347 l 231 231 l 0 231 l 0 347 z "},"╢":{"ha":694,"x_min":0,"x_max":463,"o":"m 347 1042 l 463 1042 l 463 -347 l 347 -347 l 347 1042 m 0 463 l 116 463 l 116 1042 l 231 1042 l 231 -347 l 116 -347 l 116 347 l 0 347 l 0 463 z "},"╣":{"ha":694,"x_min":0,"x_max":463,"o":"m 0 579 l 116 579 l 116 1042 l 231 1042 l 231 463 l 0 463 l 0 579 m 0 347 l 231 347 l 231 -347 l 116 -347 l 116 231 l 0 231 l 0 347 m 347 1042 l 463 1042 l 463 -347 l 347 -347 l 347 1042 z "},"╤":{"ha":694,"x_min":0,"x_max":694,"o":"m 0 579 l 694 579 l 694 463 l 0 463 l 0 579 m 0 347 l 694 347 l 694 231 l 347 231 l 347 -347 l 231 -347 l 231 231 l 0 231 l 0 347 z "},"╥":{"ha":694,"x_min":0,"x_max":694,"o":"m 347 347 l 231 347 l 231 -347 l 116 -347 l 116 347 l 0 347 l 0 463 l 694 463 l 694 347 l 463 347 l 463 -347 l 347 -347 l 347 347 z "},"╦":{"ha":694,"x_min":0,"x_max":694,"o":"m 0 579 l 694 579 l 694 463 l 0 463 l 0 579 m 0 347 l 231 347 l 231 -347 l 116 -347 l 116 231 l 0 231 l 0 347 m 347 347 l 694 347 l 694 231 l 463 231 l 463 -347 l 347 -347 l 347 347 z "},"╧":{"ha":694,"x_min":0,"x_max":694,"o":"m 0 347 l 694 347 l 694 231 l 0 231 l 0 347 m 0 579 l 231 579 l 231 1042 l 347 1042 l 347 579 l 694 579 l 694 463 l 0 463 l 0 579 z "},"╨":{"ha":694,"x_min":0,"x_max":694,"o":"m 0 463 l 116 463 l 116 1042 l 231 1042 l 231 463 l 347 463 l 347 1042 l 463 1042 l 463 463 l 694 463 l 694 347 l 0 347 l 0 463 z "},"╩":{"ha":694,"x_min":0,"x_max":694,"o":"m 0 579 l 116 579 l 116 1042 l 231 1042 l 231 463 l 0 463 l 0 579 m 0 347 l 694 347 l 694 231 l 0 231 l 0 347 m 347 1042 l 463 1042 l 463 579 l 694 579 l 694 463 l 347 463 l 347 1042 z "},"╪":{"ha":694,"x_min":0,"x_max":694,"o":"m 0 579 l 231 579 l 231 1042 l 347 1042 l 347 579 l 694 579 l 694 463 l 347 463 l 347 347 l 694 347 l 694 231 l 347 231 l 347 -347 l 231 -347 l 231 231 l 0 231 l 0 347 l 231 347 l 231 463 l 0 463 l 0 579 z "},"╫":{"ha":694,"x_min":0,"x_max":694,"o":"m 347 347 l 231 347 l 231 -347 l 116 -347 l 116 347 l 0 347 l 0 463 l 116 463 l 116 1042 l 231 1042 l 231 463 l 347 463 l 347 1042 l 463 1042 l 463 463 l 694 463 l 694 347 l 463 347 l 463 -347 l 347 -347 l 347 347 z "},"╬":{"ha":694,"x_min":0,"x_max":694,"o":"m 347 347 l 694 347 l 694 231 l 463 231 l 463 -347 l 347 -347 l 347 347 m 347 1042 l 463 1042 l 463 579 l 694 579 l 694 463 l 347 463 l 347 1042 m 0 579 l 116 579 l 116 1042 l 231 1042 l 231 463 l 0 463 l 0 579 m 0 347 l 231 347 l 231 -347 l 116 -347 l 116 231 l 0 231 l 0 347 z "},"▀":{"ha":694,"x_min":0,"x_max":694,"o":"m 0 1042 l 694 1042 l 694 347 l 0 347 l 0 1042 z "},"▄":{"ha":694,"x_min":0,"x_max":694,"o":"m 0 347 l 694 347 l 694 -347 l 0 -347 l 0 347 z "},"█":{"ha":694,"x_min":0,"x_max":694,"o":"m 0 1042 l 694 1042 l 694 -347 l 0 -347 l 0 1042 z "},"▌":{"ha":694,"x_min":0,"x_max":347,"o":"m 0 1042 l 347 1042 l 347 -347 l 0 -347 l 0 1042 z "},"▐":{"ha":694,"x_min":347,"x_max":694,"o":"m 347 1042 l 694 1042 l 694 -347 l 347 -347 l 347 1042 z "},"░":{"ha":694,"x_min":0,"x_max":579,"o":"m 231 -116 l 347 -116 l 347 -231 l 231 -231 l 231 -116 m 463 116 l 579 116 l 579 0 l 463 0 l 463 116 m 0 116 l 116 116 l 116 0 l 0 0 l 0 116 m 231 347 l 347 347 l 347 231 l 231 231 l 231 347 m 463 579 l 579 579 l 579 463 l 463 463 l 463 579 m 0 579 l 116 579 l 116 463 l 0 463 l 0 579 m 231 810 l 347 810 l 347 694 l 231 694 l 231 810 m 463 1042 l 579 1042 l 579 926 l 463 926 l 463 1042 m 231 1042 l 347 1042 l 347 926 l 231 926 l 231 1042 m 0 810 l 116 810 l 116 694 l 0 694 l 0 810 m 463 810 l 579 810 l 579 694 l 463 694 l 463 810 m 231 579 l 347 579 l 347 463 l 231 463 l 231 579 m 0 347 l 116 347 l 116 231 l 0 231 l 0 347 m 463 347 l 579 347 l 579 231 l 463 231 l 463 347 m 231 116 l 347 116 l 347 0 l 231 0 l 231 116 m 0 -116 l 116 -116 l 116 -231 l 0 -231 l 0 -116 m 463 -116 l 579 -116 l 579 -231 l 463 -231 l 463 -116 m 0 1042 l 116 1042 l 116 926 l 0 926 l 0 1042 z "},"▒":{"ha":694,"x_min":0,"x_max":694,"o":"m 579 926 l 463 926 l 463 1042 l 579 1042 l 579 926 l 694 926 l 694 810 l 579 810 l 579 926 m 116 -231 l 0 -231 l 0 -116 l 116 -116 l 116 -231 l 231 -231 l 231 -347 l 116 -347 l 116 -231 m 347 -231 l 231 -231 l 231 -116 l 116 -116 l 116 0 l 0 0 l 0 116 l 116 116 l 116 0 l 231 0 l 231 -116 l 347 -116 l 347 -231 l 463 -231 l 463 -347 l 347 -347 l 347 -231 m 579 694 l 463 694 l 463 810 l 347 810 l 347 926 l 231 926 l 231 1042 l 347 1042 l 347 926 l 463 926 l 463 810 l 579 810 l 579 694 l 694 694 l 694 579 l 579 579 l 579 694 m 579 0 l 463 0 l 463 116 l 347 116 l 347 231 l 231 231 l 231 347 l 116 347 l 116 463 l 0 463 l 0 579 l 116 579 l 116 463 l 231 463 l 231 347 l 347 347 l 347 231 l 463 231 l 463 116 l 579 116 l 579 0 l 694 0 l 694 -116 l 579 -116 l 579 0 m 579 -231 l 463 -231 l 463 -116 l 347 -116 l 347 0 l 231 0 l 231 116 l 116 116 l 116 231 l 0 231 l 0 347 l 116 347 l 116 231 l 231 231 l 231 116 l 347 116 l 347 0 l 463 0 l 463 -116 l 579 -116 l 579 -231 l 694 -231 l 694 -347 l 579 -347 l 579 -231 m 579 231 l 463 231 l 463 347 l 347 347 l 347 463 l 231 463 l 231 579 l 116 579 l 116 694 l 0 694 l 0 810 l 116 810 l 116 694 l 231 694 l 231 579 l 347 579 l 347 463 l 463 463 l 463 347 l 579 347 l 579 231 l 694 231 l 694 116 l 579 116 l 579 231 m 579 463 l 463 463 l 463 579 l 347 579 l 347 694 l 231 694 l 231 810 l 116 810 l 116 926 l 0 926 l 0 1042 l 116 1042 l 116 926 l 231 926 l 231 810 l 347 810 l 347 694 l 463 694 l 463 579 l 579 579 l 579 463 l 694 463 l 694 347 l 579 347 l 579 463 z "},"▓":{"ha":694,"x_min":0,"x_max":694,"o":"m 579 -116 l 694 -116 l 694 -231 l 579 -231 l 579 -347 l 463 -347 l 463 -231 l 347 -231 l 347 -347 l 231 -347 l 231 -231 l 116 -231 l 116 -347 l 0 -347 l 0 1042 l 694 1042 l 694 926 l 579 926 l 579 810 l 694 810 l 694 694 l 579 694 l 579 579 l 694 579 l 694 463 l 579 463 l 579 347 l 694 347 l 694 231 l 579 231 l 579 116 l 694 116 l 694 0 l 579 0 l 579 -116 m 231 926 l 116 926 l 116 810 l 231 810 l 231 926 m 231 463 l 116 463 l 116 347 l 231 347 l 231 463 m 231 694 l 116 694 l 116 579 l 231 579 l 231 694 m 231 231 l 116 231 l 116 116 l 231 116 l 231 231 m 231 0 l 116 0 l 116 -116 l 231 -116 l 231 0 m 347 463 l 347 347 l 463 347 l 463 463 l 347 463 m 463 694 l 347 694 l 347 579 l 463 579 l 463 694 m 347 926 l 347 810 l 463 810 l 463 926 l 347 926 m 463 0 l 347 0 l 347 -116 l 463 -116 l 463 0 m 463 231 l 347 231 l 347 116 l 463 116 l 463 231 z "},"":{"ha":694,"x_min":98,"x_max":715,"o":"m 279 -312 l 98 -312 l 98 -22 q 150 154 98 86 q 260 247 186 201 l 360 306 q 444 389 419 341 q 470 515 470 438 l 470 714 l 333 714 l 524 920 l 715 714 l 579 714 l 579 481 q 543 304 579 366 q 439 200 508 243 l 389 170 q 306 96 328 133 q 279 -22 279 53 l 279 -312 m 279 400 l 98 294 l 98 1082 l 279 1082 l 279 400 z "},"":{"ha":694,"x_min":127,"x_max":567,"o":"m 458 487 l 458 407 l 127 407 l 127 950 l 229 950 l 229 487 l 458 487 m 463 359 l 567 359 l 567 -183 l 457 -183 l 296 169 l 309 -66 l 309 -183 l 206 -183 l 206 359 l 315 359 l 477 6 l 463 264 l 463 359 z "},"":{"ha":694,"x_min":81,"x_max":613,"o":"m 174 -93 q 81 -8 81 -93 l 81 407 q 161 498 81 499 l 161 682 q 215 819 161 764 q 347 872 269 872 q 479 819 426 872 q 534 682 535 765 l 534 498 q 613 407 612 498 l 613 -8 q 521 -93 613 -93 l 174 -93 m 347 794 q 277 764 303 794 q 250 682 250 734 l 250 498 l 444 498 l 444 682 q 418 763 444 733 q 347 794 391 794 m 384 50 l 384 244 q 428 310 428 265 q 405 363 428 341 q 347 385 381 385 q 290 363 314 385 q 266 310 266 341 q 310 244 266 264 l 310 50 l 384 50 z "},"":{"ha":694,"x_min":0,"x_max":694,"o":"m 0 1082 l 694 382 l 0 -318 l 0 1082 z "},"":{"ha":694,"x_min":-37,"x_max":694,"o":"m -37 999 l 25 1056 l 694 382 l 25 -293 l -37 -235 l 573 382 l -37 999 z "},"":{"ha":694,"x_min":0,"x_max":694,"o":"m 694 -318 l 0 382 l 694 1082 l 694 -318 z "},"":{"ha":694,"x_min":0,"x_max":731,"o":"m 122 382 l 731 -235 l 669 -293 l 0 382 l 669 1056 l 731 999 l 122 382 z "}}}
